<svg width="24" height="22" viewBox="0 0 24 22" fill="none" xmlns="http://www.w3.org/2000/svg">
<path d="M20.0454 8.36871C20.06 7.26482 20.3603 6.18247 20.9185 5.22235C21.4766 4.26224 22.2745 3.45556 23.2378 2.87737C22.6258 2.02411 21.8185 1.32191 20.8799 0.826546C19.9414 0.33118 18.8975 0.0562937 17.8311 0.0237197C15.5563 -0.209404 13.3509 1.35267 12.1917 1.35267C11.0101 1.35267 9.22531 0.0468663 7.30339 0.085466C6.06025 0.124678 4.84871 0.477608 3.78682 1.10987C2.72493 1.74213 1.8489 2.63215 1.24408 3.69323C-1.37578 8.1217 0.578406 14.6301 3.08806 18.2097C4.3437 19.9626 5.81117 21.9206 7.73135 21.8511C9.61036 21.7751 10.3121 20.6814 12.5802 20.6814C14.8273 20.6814 15.4857 21.8511 17.4448 21.807C19.4611 21.7751 20.7314 20.0464 21.943 18.2769C22.8452 17.0279 23.5394 15.6476 24 14.1869C22.8286 13.7032 21.829 12.8935 21.1257 11.8589C20.4225 10.8243 20.0468 9.61042 20.0454 8.36871Z" fill="black"/>
</svg>
