<svg width="24" height="29" viewBox="0 0 24 29" fill="none" xmlns="http://www.w3.org/2000/svg">
<path d="M20.0454 15.3157C20.06 14.2118 20.3603 13.1295 20.9185 12.1694C21.4766 11.2093 22.2745 10.4026 23.2378 9.82439C22.6258 8.97113 21.8185 8.26893 20.8799 7.77357C19.9414 7.2782 18.8975 7.00332 17.8311 6.97074C15.5563 6.73762 13.3509 8.29969 12.1917 8.29969C11.0101 8.29969 9.22531 6.99389 7.30339 7.03249C6.06025 7.0717 4.84871 7.42463 3.78682 8.05689C2.72493 8.68915 1.8489 9.57918 1.24408 10.6403C-1.37578 15.0687 0.578406 21.5771 3.08806 25.1568C4.3437 26.9096 5.81117 28.8676 7.73135 28.7982C9.61036 28.7221 10.3121 27.6284 12.5802 27.6284C14.8273 27.6284 15.4857 28.7982 17.4448 28.754C19.4611 28.7221 20.7314 26.9934 21.943 25.2239C22.8452 23.975 23.5394 22.5946 24 21.1339C22.8286 20.6502 21.829 19.8406 21.1257 18.8059C20.4225 17.7713 20.0468 16.5574 20.0454 15.3157Z" fill="black"/>
<path d="M16.3449 4.61656C17.4443 3.32811 17.9859 1.67203 17.8548 0C16.1752 0.172223 14.6238 0.955915 13.5096 2.19493C12.9648 2.80022 12.5476 3.50439 12.2817 4.26721C12.0159 5.03002 11.9066 5.83651 11.9602 6.64056C12.8003 6.649 13.6314 6.47124 14.3909 6.12064C15.1504 5.77005 15.8185 5.25578 16.3449 4.61656Z" fill="black"/>
</svg>
