<svg id="Layer_1" data-name="Layer 1" xmlns="http://www.w3.org/2000/svg" viewBox="0 0 56 56"><defs><style>.cls-1{fill:#1a355c;}.cls-2{fill:#0f5ea5;}.cls-3{fill:#9bd1c6;}.cls-4{fill:#e2242f;}.cls-5{fill:#fec92b;}.cls-6{fill:#e73848;}.cls-7{fill:#fec92c;}.cls-8{fill:#f59d28;}.cls-9{fill:#3ab8bd;}.cls-10{fill:#1c365d;}.cls-11{fill:#0d0407;}.cls-12{fill:#0a0b0a;}.cls-13{fill:#15909c;}.cls-14{fill:#d0dcee;}.cls-15{fill:#ec682c;}.cls-16{fill:#ffd880;}.cls-17{fill:#f59d29;}.cls-18{fill:#f3f9fe;}.cls-19{fill:#3db9bd;}.cls-20{fill:#44babd;}.cls-21{fill:#1c3d62;}.cls-22{fill:#105ca2;}.cls-23{fill:#02030b;}.cls-24{fill:#e22530;}.cls-25{fill:#20385f;}.cls-26{fill:#f18935;}.cls-27{fill:#20355b;}.cls-28{fill:#464654;}.cls-29{fill:#26375b;}.cls-30{fill:#22365b;}.cls-31{fill:#28385b;}.cls-32{fill:#1c355c;}.cls-33{fill:#feca2f;}.cls-34{fill:#1f385f;}.cls-35{fill:#d1dcee;}.cls-36{fill:#f3f8fd;}</style></defs><path class="cls-1" d="M13.28,47.09l-5.75,0a1.54,1.54,0,0,1-1.28-1.7c0-1,0-1.94,0-2.9q0-17.22,0-34.43a5.78,5.78,0,0,1,0-.93A1.52,1.52,0,0,1,7.45,5.65c1.6-.18,3.21,0,4.82-.09l.92,0a.48.48,0,0,1,.5-.08.6.6,0,0,1,.3.43,1.81,1.81,0,0,0,1.53,1.37c.14,0,.29,0,.37.2a.49.49,0,0,1-.1.54,12.65,12.65,0,0,1-2.54.11c-.67,0-1.34,0-2,0-1.36,0-1.93.57-1.93,1.91v6.38a4.1,4.1,0,0,1-.05.86,23.16,23.16,0,0,0-1.53,5.95,25.11,25.11,0,0,0,1.4,12c0,.12.09.24.13.36a14.25,14.25,0,0,1,0,2c0,1.67,0,3.34,0,5,0,1.35.52,1.9,1.89,2,.52,0,1.05,0,1.58,0a1.37,1.37,0,0,1,.69.1.24.24,0,0,1,.11.26,4.93,4.93,0,0,0-.13,1.58C13.44,46.68,13.48,46.92,13.28,47.09Z"/><path class="cls-2" d="M36.29,5.57a4.88,4.88,0,0,1,1.57.08,1.5,1.5,0,0,1,1.24,1.5c0,.17,0,.33,0,.5q0,14.28,0,28.58c0,.58,0,1.16,0,1.75a1.15,1.15,0,0,1,.12.73c0,1.64,0,3.27,0,4.9A2.4,2.4,0,0,1,39,44.88a.32.32,0,0,1-.4,0,1.47,1.47,0,0,1-.14-.9q0-5.64,0-11.28c0-.2,0-.4,0-.6,0-.68-.26-.9-.94-.94a1.46,1.46,0,0,1-.89-.17,1.07,1.07,0,0,1-.14-.68c.05-6.75,0-13.49,0-20.24a2.1,2.1,0,0,0-.06-.75A1.61,1.61,0,0,0,34.7,8.11c-1.4,0-2.8,0-4.21,0a1.57,1.57,0,0,1-.8-.12c-.18-.5-.12-.68.33-.72A5.1,5.1,0,0,0,31.27,7a44.08,44.08,0,0,0,5.82-1.26C36.88,5.69,36.55,6,36.29,5.57Z"/><path class="cls-3" d="M14.71,3.44a3.14,3.14,0,0,1,1.18-.08H29.47a2.29,2.29,0,0,1,2.4,1.25,2.59,2.59,0,0,1,.15.91c-.09.14-.24.15-.38.18a36.74,36.74,0,0,1-8.47,1.13,26.57,26.57,0,0,1-4.46-.24,5.61,5.61,0,0,1-.59-.13C16.69,6,16.28,5,17.06,3.63c-.68,0-1.34,0-2,0A.43.43,0,0,1,14.71,3.44Z"/><path class="cls-4" d="M39,44.85c.18-1.87.07-3.74.12-5.62l0-1.25c0-.29,0-.58,0-.87,0-.86.37-1.17,1.22-1.11.11,0,.21,0,.32,0,.22.59-.11,1.14-.12,1.71,0,.23-.06.47,0,.7,0,1.22,0,2.43,0,3.64a.9.9,0,0,0,.25.7A2.29,2.29,0,0,0,43,43.88a14,14,0,0,1,2.5.1,3.94,3.94,0,0,1,3,1.77,1.84,1.84,0,0,0,.41.51,1,1,0,0,0,1.15.2c.18-.08.34-.23.56-.14a1.92,1.92,0,0,1-1.92,2.57H48.1a3.52,3.52,0,0,0-3.83-3.54,3.65,3.65,0,0,0-3.15,2.75,1,1,0,0,0,.07.69.11.11,0,0,1-.06.13c-.71-.11-1.44,0-2.16-.1a.47.47,0,0,1-.06-.09A11.55,11.55,0,0,1,39,44.85Z"/><path class="cls-5" d="M39,44.85c0,1.33,0,2.66,0,4l-9.23,0H25.26a1,1,0,0,1-.2-.55,3.48,3.48,0,0,0-3.25-2.94,3.53,3.53,0,0,0-3.63,2.76,1,1,0,0,0,.06.69.11.11,0,0,1-.07.13A23.38,23.38,0,0,0,15,48.85h-.76c-1,0-1,0-1-1,0-.27,0-.54,0-.81l0-.67c.22-.12.39,0,.56.11a4,4,0,0,0,4.2-.18,14.27,14.27,0,0,1,1.35-.82,5.14,5.14,0,0,1,5.33.31,7.27,7.27,0,0,0,3.32,1.44,19.22,19.22,0,0,0,3.31.12c1.43-.13,2.88,0,4.31,0a2.17,2.17,0,0,0,2.41-1.77c.14-.42.08-.52-.38-.53-.89,0-1.78,0-2.67,0-3.81,0-7.61,0-11.41,0-3.07,0-6.15.07-9.22,0-.28,0-.62.11-.83-.23.27-.31.64-.21,1-.21H37.72c.32,0,.66,0,.92.22Z"/><path class="cls-6" d="M50.67,46.32c-.53.33-1.07.65-1.69.18a2,2,0,0,1-.55-.67,3.82,3.82,0,0,0-3-1.71,26.58,26.58,0,0,0-2.82-.1A2.1,2.1,0,0,1,40.73,43c.23-.26.53-.19.81-.19H48c.84,0,.92-.11.86-1-.07-.47-.1-.94-.15-1.41a2.79,2.79,0,0,0-2.86-2.65c-1.27,0-2.53-.16-3.8-.13a1.25,1.25,0,0,0-1.4.71.21.21,0,0,1-.21.15A15.25,15.25,0,0,1,40.73,36c2.16.07,4.33.12,6.49.22a3,3,0,0,1,2.66,2.68c.3,2.42.54,4.85.8,7.27C50.68,46.24,50.67,46.28,50.67,46.32Z"/><path class="cls-7" d="M5,45.68A1.08,1.08,0,0,1,4.89,45V8.74A8.56,8.56,0,0,1,5,7.06a.32.32,0,0,1,.16.27c0,1.24.61,2.35.64,3.59,0,.9.13,1.81.15,2.72,0,3.06.1,6.12,0,9.18-.13,3.32,0,6.63-.08,9.94,0,2,.21,3.92.37,5.88a16,16,0,0,1-.09,4.68,6.8,6.8,0,0,1-.68,1.84A1.06,1.06,0,0,1,5,45.68Z"/><path class="cls-8" d="M5,45.68a8.62,8.62,0,0,0,1.22-5c-.08-1.51-.27-3-.41-4.54-.06-.7-.09-1.41-.1-2.11,0-3.37-.12-6.75,0-10.11s.07-6.84.06-10.26a16.58,16.58,0,0,0-.36-4.22A8.09,8.09,0,0,1,5,7.06,1.45,1.45,0,0,1,6.37,5.63c.36,0,.72,0,1.08,0a2,2,0,0,0-1,1.94q0,18.77,0,37.54a1.87,1.87,0,0,0,1.11,1.93c-.36,0-.72,0-1.08,0A1.48,1.48,0,0,1,5,45.68Z"/><path class="cls-9" d="M15,3.48l2,0h.27c-.12.26-.25.49-.34.73a1.48,1.48,0,0,0,.92,2,7.45,7.45,0,0,0,2.51.4,39.39,39.39,0,0,0,6.33-.17c1.58-.21,3.12-.55,4.68-.86.21,0,.43,0,.65-.06a.18.18,0,0,1,.09,0,1.44,1.44,0,0,1-.81,1.5,2.2,2.2,0,0,1-1.16.36c-.43,0-.56.15-.44.55,0,.1-.08.13-.16.06-.15-.69-.66-.47-1.09-.45-.19,0-.37,0-.55,0-3.64,0-7.28,0-10.92,0a4,4,0,0,1-1.19-.15,2.17,2.17,0,0,1-2.08-1.89A1.79,1.79,0,0,1,15,3.48Z"/><path class="cls-2" d="M18.17,48.94a.25.25,0,0,0,0-.08,3.21,3.21,0,0,1,1.56-3,3.5,3.5,0,0,1,5.36,2.66c0,.11,0,.21.06.32a.22.22,0,0,0-.17.24,3.4,3.4,0,0,1-3.42,3.14A3.44,3.44,0,0,1,18.21,49,.18.18,0,0,0,18.17,48.94Z"/><path class="cls-2" d="M41.13,48.93a.17.17,0,0,0,0-.07,2.08,2.08,0,0,1,.32-1.61,3.51,3.51,0,0,1,6.57,1,.77.77,0,0,1-.07.63,3.4,3.4,0,0,1-6.78.29A2.56,2.56,0,0,0,41.13,48.93Z"/><path class="cls-10" d="M31.3,7.06a2.84,2.84,0,0,0,.81-1.5h4.18c.3.16.64,0,1.1.15-.67.2-1.22.38-1.79.52A27.19,27.19,0,0,1,31.3,7.06Z"/><path class="cls-11" d="M48,48.91a3.29,3.29,0,0,0-2-3.11,3.26,3.26,0,0,0-3.53.45,3.62,3.62,0,0,0-1.29,2.61c-.34,0-.2-.3-.19-.47a3.65,3.65,0,0,1,7.25.07c0,.17,0,.32-.1.44Z"/><path class="cls-12" d="M25.16,48.88c-.27-.06-.15-.29-.18-.45a3.4,3.4,0,0,0-3.18-2.94,3.36,3.36,0,0,0-3.38,2.31,9.07,9.07,0,0,0-.24,1.06c-.35,0-.19-.3-.18-.46a3.64,3.64,0,0,1,7.26.45Z"/><path class="cls-13" d="M15,3.48a2.35,2.35,0,0,0-1.33,2.08l-.52,0c0-1.27.45-1.87,1.52-2.1Z"/><path class="cls-14" d="M36.6,9.23a1.18,1.18,0,0,1,.09.74V31c-.29.28-.65.19-1,.19H15.06c-1.21,0-1.37.16-1.37,1.39V43.72a1.21,1.21,0,0,1-.17.89c-.85,0-1.71,0-2.56,0a1.67,1.67,0,0,1-1.82-1.89c0-2.42,0-4.84,0-7.26A6.25,6.25,0,0,1,9,33.86Q9,26.44,9,19a6.28,6.28,0,0,1,.17-1.67V9.78A1.68,1.68,0,0,1,11,8l4.79,0a.29.29,0,0,1,.2.29,11.45,11.45,0,0,1-.07,2.68c-.28,0-.3,0-.32-.34,0-.52,0-1,0-1.57,0-.28.15-.65-.28-.79a1.42,1.42,0,0,0-1.56.38,8.42,8.42,0,0,0-.76,2.32,12.45,12.45,0,0,0-.24,2.65,1.86,1.86,0,0,1-.09.81,1.85,1.85,0,0,0-.47,1.39c0,.89,0,1.78,0,2.67s.25,1,1,1a4,4,0,0,1,.92.06,1.16,1.16,0,0,1,.45.53c.38.66.89,1.23,1.33,1.85a1.14,1.14,0,0,0,.65.36c.18.06.31.17,0,.31a17.45,17.45,0,0,1-3,0,2,2,0,0,0-.65-.05.73.73,0,0,0-.76.76c0,1.16,0,2.32,0,3.48a.61.61,0,0,0,.66.65c1.2,0,2.39,0,3.59,0A.65.65,0,0,0,17,27.1a7.86,7.86,0,0,0,.07-1.68,11.94,11.94,0,0,1,.06-1.69c.09-.27.27-.19.42-.07.86.68,1.74,1.35,2.65,2,.09.07.21.18,0,.31a3.07,3.07,0,0,1-.52.14c-.12,0-.26.08-.25.24s.15.19.27.22a4.11,4.11,0,0,0,.92.06,6.37,6.37,0,0,1,1.57.08A31.81,31.81,0,0,0,32,29.42c1.26.17,2.53.29,3.8.4.56,0,.64,0,.64-.59,0-1.69,0-3.38,0-5.08q0-7,0-14C36.42,9.85,36.33,9.5,36.6,9.23Z"/><path class="cls-15" d="M13.52,44.61c0-.4,0-.8,0-1.2v-11c0-1.29.12-1.42,1.39-1.42H36l.66,0,1,0c.71,0,1,.27,1,1,0,3,0,6,0,9,0,1.28,0,2.55,0,3.82-.23,0-.47,0-.7,0H14.22a1,1,0,0,0-.59.06s0,0-.07,0Z"/><path class="cls-16" d="M13.56,44.87a.08.08,0,0,0,.07,0l.71,0H37.78c.72,0,.77.06.51.73a5.55,5.55,0,0,1-.62,1.15,1.65,1.65,0,0,1-1.43.75c-1.06,0-2.12,0-3.17,0-1.31,0-2.6.12-3.92,0a6.9,6.9,0,0,1-4-1.29,5.78,5.78,0,0,0-3.26-1.21,5,5,0,0,0-3,1,14.43,14.43,0,0,1-1.26.75,4,4,0,0,1-4-.18,2.64,2.64,0,0,0-.29-.15c0-.36,0-.72,0-1.07S13.34,45,13.56,44.87Z"/><path class="cls-2" d="M9.13,17.36c0,3.89,0,7.78,0,11.68,0,2.14,0,4.29,0,6.43a20,20,0,0,1-1.52-5.75,24,24,0,0,1-.2-4.56A20.77,20.77,0,0,1,9.13,17.36Z"/><path class="cls-17" d="M15.76,11c0-1,0-2,0-3,0-.17,0-.35,0-.52a4.83,4.83,0,0,1,1.14,0,.61.61,0,0,1,.11.47,1.6,1.6,0,0,1-.1.31,1.86,1.86,0,0,0,1.65,2.8,23.05,23.05,0,0,0,3.11,0A18.46,18.46,0,0,1,23.93,11c1.22,0,2.43-.09,3.65-.13.85,0,1.06-.35.79-1.14-.09-.6,0-1.2-.07-1.8a.39.39,0,0,1,.17-.41c.15-.09.31,0,.47-.06.47-.08.75.06.72.59a11.82,11.82,0,0,1,0,3,.61.61,0,0,1-.55.53,2.88,2.88,0,0,1-.59,0H16.84a2,2,0,0,1-.65-.06C15.91,11.48,15.69,11.33,15.76,11Z"/><path class="cls-18" d="M15.76,11a.66.66,0,0,0,.74.5H28.91c.51,0,.71-.24.71-.74,0-.9-.05-1.82,0-2.72a.1.1,0,0,0,0,0h5.17A1.61,1.61,0,0,1,36.6,9.23c0,.75,0,1.49,0,2.24v17.9c0,.67-.07.73-.71.65-1.77-.23-3.55-.35-5.32-.64A30.61,30.61,0,0,1,22.61,27c-.16-.08-.31-.19-.46-.28.24-.23.55-.17.83-.17h5.67a1.82,1.82,0,0,0,.7-.08c.09,0,.18-.08.18-.19s-.09-.15-.18-.19A2.11,2.11,0,0,0,28.6,26H21.13a1.13,1.13,0,0,1-.84-.16c-1-.74-2.07-1.48-3.05-2.3a4.89,4.89,0,0,0-.56-1.12,1.6,1.6,0,0,1-1.29-.92,9.31,9.31,0,0,1-1.22-1.9c.39-.27.84-.12,1.27-.15s.61,0,.92,0A.77.77,0,0,0,17,19a11.26,11.26,0,0,0,.06-2c0-.47,0-.94,0-1.41,0-.83-.2-1-1-1s-1.67,0-2.51,0c-.33,0-.69.1-1-.17a13.37,13.37,0,0,1,.72-5.17,1.63,1.63,0,0,1,2.24-1.15c.26.08.21.26.21.43,0,.77,0,1.53,0,2.29A.73.73,0,0,0,15.76,11Z"/><path class="cls-19" d="M23.22,6.08a1.67,1.67,0,0,1-1.07-.6.43.43,0,0,1-.07-.5c.1-.16.3-.12.45-.06a2.57,2.57,0,0,1,1,.63c.09.11.19.22.1.38S23.4,6.09,23.22,6.08Z"/><path class="cls-20" d="M25.17,4.71c0,.19-.13.18-.23.17a.7.7,0,0,1-.69-.44c0-.12.05-.21.18-.2A1,1,0,0,1,25.17,4.71Z"/><path class="cls-14" d="M49,41.71c.28,1,.09,1.25-.87,1.25H40.73a.73.73,0,0,1-.38-.78l.06-3.7c.41-.87.68-1,1.53-1a1.59,1.59,0,0,1,.25.76,4.46,4.46,0,0,0,4.37,3.57C47.36,41.82,48.15,41.68,49,41.71Z"/><path class="cls-18" d="M49,41.71c-2.75.71-5.89.07-6.83-3.12a3.23,3.23,0,0,1-.18-1.11c1.4,0,2.8,0,4.2.13a2.87,2.87,0,0,1,2.69,2.74Z"/><path class="cls-21" d="M16.92,7.93V7.47c.13,0,.26,0,.38,0H27.78l.27,0c-.28.32-.69.26-1.05.31-.77.11-1.55.16-2.31.31-1.9.09-3.81,0-5.71,0a8,8,0,0,1-1.89-.06A.52.52,0,0,1,16.92,7.93Z"/><path class="cls-22" d="M24.76,8a15.91,15.91,0,0,1,2.07-.32c.4-.08.81-.12,1.22-.17a.51.51,0,0,1,.42,0c0,.13-.16.25,0,.4A.44.44,0,0,1,28,8.1c-1,0-1.94,0-2.91,0A.49.49,0,0,1,24.76,8Z"/><path class="cls-1" d="M23.77,48.92a2,2,0,0,1-1.18,1.91,2.19,2.19,0,0,1-2.39-.29,2,2,0,0,1-.69-2.16,2.43,2.43,0,0,1,1.41-1.24A2.17,2.17,0,0,1,23.77,48.92Z"/><path class="cls-23" d="M23.77,48.92c-.57-1.61-2-2.21-3.34-1.41a2,2,0,0,0-.76.9c-.1.2-.13.08-.16,0a2.16,2.16,0,0,1,4.26.54Z"/><path class="cls-1" d="M46.73,48.92a2,2,0,0,1-1.18,1.91,2.19,2.19,0,0,1-2.39-.29,2,2,0,0,1-.7-2.16,2.46,2.46,0,0,1,1.41-1.24A2.18,2.18,0,0,1,46.73,48.92Z"/><path class="cls-23" d="M46.73,48.92c-.58-1.61-2-2.22-3.34-1.41a2,2,0,0,0-.77.9c-.09.2-.12.08-.16,0a2.16,2.16,0,0,1,4.27.54Z"/><path class="cls-6" d="M16.68,22.46c.54.19.54.66.56,1.12,0,1,0,2.08,0,3.12,0,.17.07.36-.09.51-.37-.1-.75-.16-1.11-.27a3.93,3.93,0,0,1-2.76-3.72c0-.28,0-.56.25-.75Z"/><path class="cls-4" d="M13.51,22.47A3.72,3.72,0,0,0,16.73,27c.18,0,.37,0,.4.25s-.36.42-.67.43h-3.7a.69.69,0,0,1-.75-.75c0-1.23,0-2.47,0-3.7a.71.71,0,0,1,.71-.75A1.67,1.67,0,0,1,13.51,22.47Z"/><path class="cls-24" d="M12.53,14.38l1,0s.09.09.08.14a4.79,4.79,0,0,0,.66,2.91c-.07.37-.25.21-.41.09s-.25-.32-.41-.44-.26-.15-.39,0a.24.24,0,0,0,0,.35,10.29,10.29,0,0,0,.91,1.07c.19.17.37.08.52-.09s.22-.34.46-.34a5.33,5.33,0,0,0,2,.69c.21,0,.33.14.25.38-.13.41-.47.46-.82.46l-2.15,0-1.3,0a.79.79,0,0,1-.87-.89c0-1.16,0-2.32,0-3.47A.9.9,0,0,1,12.53,14.38Z"/><path class="cls-25" d="M20.29,25.88l8.5,0a4.87,4.87,0,0,1,.54,0c.25,0,.52.09.54.37s-.27.39-.53.43-.47,0-.71,0l-6.48,0-1.95,0a3.09,3.09,0,0,1-.43,0c-.25,0-.55-.08-.56-.4s.29-.36.54-.4A4.9,4.9,0,0,1,20.29,25.88Z"/><path class="cls-26" d="M25.65,32.14c0,3.84,0,7.67,0,11.51,0,.49-.14.62-.62.6-.92,0-1.85,0-2.78,0a1,1,0,0,1-.18-.72V32.77a1.16,1.16,0,0,1,.14-.68.83.83,0,0,1,.57-.14h2.27C25.28,32,25.51,31.92,25.65,32.14Z"/><path class="cls-26" d="M33.63,44.24H30.25a.84.84,0,0,1-.16-.67c0-3.6,0-7.21,0-10.81,0-.71.09-.8.77-.81h2.19c.62,0,.72.11.73.74,0,2.28,0,4.55,0,6.83v4A1,1,0,0,1,33.63,44.24Z"/><path class="cls-26" d="M29.69,44.24H26.28a.93.93,0,0,1-.13-.63V32.79c0-.75.09-.83.85-.84h2.08a1,1,0,0,1,.63.12,1.22,1.22,0,0,1,.16.79v10.6A1.09,1.09,0,0,1,29.69,44.24Z"/><path class="cls-26" d="M21.7,44.24H18.33a.9.9,0,0,1-.16-.67V32.75c0-.7.1-.79.78-.8h2.13c.69,0,.78.1.78.81q0,4.07,0,8.13c0,.9,0,1.79,0,2.68A.85.85,0,0,1,21.7,44.24Z"/><path class="cls-26" d="M37.34,44.05a1,1,0,0,1-.71.19H34.2a.83.83,0,0,1-.2-.71q0-5.4,0-10.8a1.09,1.09,0,0,1,.13-.63A.89.89,0,0,1,34.8,32c.63,0,1.27,0,1.9,0,.62.2.75.35.75,1,0,3.5,0,7,0,10.49A1.42,1.42,0,0,1,37.34,44.05Z"/><path class="cls-26" d="M17.76,44.24H15.53a1.11,1.11,0,0,1-.62-.13,2.51,2.51,0,0,1-.2-1.11q0-4.91,0-9.8c0-.57.11-1.06.74-1.23s1.19,0,1.79,0a.8.8,0,0,1,.56.14,1.28,1.28,0,0,1,.14.79q0,5.26,0,10.53A1.07,1.07,0,0,1,17.76,44.24Z"/><path class="cls-27" d="M15.48,32.09a.82.82,0,0,0-.62.9V43.57a4.93,4.93,0,0,0,.05.54,1.06,1.06,0,0,1-.3-.85c0-3.55,0-7.1,0-10.65,0-.76.27-1,1-1h21c.7,0,1,.26,1,1q0,5.38,0,10.77a.85.85,0,0,1-.24.75q0-5.5,0-11c0-.49-.14-.86-.66-1a15.75,15.75,0,0,0-2.66,0,7.91,7.91,0,0,1-1-.07h-10c-1.39,0-2.79,0-4.18,0C17.75,32.11,16.62,32,15.48,32.09Z"/><path class="cls-28" d="M15.48,32.09c.17-.16.38-.09.58-.09q10,0,20.05,0c.19,0,.4-.07.58.08l-2.49,0c-.36.23-.28.61-.28.94,0,2.2,0,4.39,0,6.59v3.81a1.08,1.08,0,0,1-.17.78h-.11c0-3.92,0-7.83,0-11.74,0-.31-.09-.41-.4-.4-.87,0-1.75,0-2.62,0-.32,0-.4.1-.39.4,0,3.91,0,7.83,0,11.74h-.12a1.38,1.38,0,0,1-.17-1c0-3.39,0-6.79,0-10.19,0-.35.08-.74-.27-1-1,0-2,0-2.95,0-.34,0-.47.08-.46.45,0,3.89,0,7.79,0,11.68h-.09a1.19,1.19,0,0,1-.17-.88q0-5.13,0-10.24c0-.35.11-.75-.29-1l-.07,0-3.38,0c-.34.24-.27.61-.27,1,0,2.65,0,5.3,0,7.95,0,.83,0,1.67,0,2.51a1,1,0,0,1-.17.72H21.7c0-3.91,0-7.83,0-11.74,0-.3-.08-.41-.39-.4-.88,0-1.75,0-2.62,0-.32,0-.4.1-.4.4,0,3.91,0,7.83,0,11.74h-.12a1.27,1.27,0,0,1-.17-.89c0-3.41,0-6.83,0-10.24,0-.35.09-.74-.27-1Z"/><path class="cls-29" d="M33.74,44.23V32.67c0-.33,0-.66.46-.56V44.24A.72.72,0,0,1,33.74,44.23Z"/><path class="cls-30" d="M17.76,32.11c.5-.09.45.25.45.57V44.24a.86.86,0,0,1-.45,0Z"/><path class="cls-1" d="M21.82,44.24c0-3.87,0-7.74,0-11.61,0-.33,0-.6.45-.52q0,6.06,0,12.13Z"/><path class="cls-31" d="M25.72,32.12c.49-.11.47.21.47.54,0,3.86,0,7.71,0,11.56-.46.17-.47-.11-.46-.44V32.55C25.73,32.41,25.72,32.26,25.72,32.12Z"/><path class="cls-32" d="M29.68,32.11c.44-.08.46.18.46.52q0,5.81,0,11.62h-.44Q29.67,38.16,29.68,32.11Z"/><path class="cls-18" d="M24.76,8a26.31,26.31,0,0,0,3.66-.06c0,.6,0,1.2,0,1.8s-.07.72-.66.72H17.6c-.6,0-.75-.16-.76-.75A3.77,3.77,0,0,1,17,8l7.16,0Z"/><path class="cls-33" d="M17,8c0,.63,0,1.27,0,1.9,0,.28.08.39.37.39H28.05c.51,0,.27-.4.42-.59.6.81,0,1.28-.77,1.32-1.6.08-3.2.07-4.79.13-1.38,0-2.76.08-4.14.08a2.06,2.06,0,0,1-2.21-2.45c.05-.33.31-.53.36-.84A.16.16,0,0,1,17,8Z"/><path class="cls-34" d="M27.18,24.1h-7c-.36,0-.91.1-.9-.43s.54-.38.89-.38h14.2c.37,0,.91-.1.9.42s-.53.39-.89.39Z"/><path class="cls-1" d="M27.2,16H20c-.33,0-.76,0-.76-.4s.44-.38.76-.38H34.46c.32,0,.77-.05.77.38s-.43.4-.76.4Z"/><path class="cls-6" d="M14.18,17.6c-.16-.48-.5-.88-.62-1.38a3.37,3.37,0,0,1-.05-1.81l2.94,0c.4,0,.73.21.74.58a30.55,30.55,0,0,1-.05,4.17c0-.21-.15-.26-.34-.27a3.29,3.29,0,0,1-1.94-.75c-.14-.25.08-.4.19-.56.35-.48.68-1,1-1.48.11-.17.34-.39.1-.57s-.38.09-.52.25c-.36.45-.65,1-1,1.43C14.53,17.36,14.45,17.59,14.18,17.6Z"/><path class="cls-1" d="M24.57,17.87h4.1a2.43,2.43,0,0,1,.27,0c.36,0,.91-.13.91.4s-.53.39-.89.39H20a.93.93,0,0,1-.49-.08c-.13-.07-.25-.15-.26-.31a.36.36,0,0,1,.3-.35,1.94,1.94,0,0,1,.54-.05Z"/><path class="cls-14" d="M33.09,20.7c0,.28.07.55-.19.65a.61.61,0,0,1-.74-.2,10.16,10.16,0,0,1-.87-1.3.59.59,0,0,1,.18-.82.59.59,0,0,1,.86.12A2.54,2.54,0,0,1,33.09,20.7Z"/><path class="cls-35" d="M35,21c0,.32-.06.45-.21.55s-.29,0-.39-.09a2.87,2.87,0,0,1-.78-1.16.36.36,0,0,1,.2-.46.42.42,0,0,1,.55,0A2,2,0,0,1,35,21Z"/><path class="cls-36" d="M14.18,17.6l1.4-2c.17-.25.36-.47.66-.27s.17.47,0,.71l-1.39,2.09c-.67.88-.67.88-1.4,0l-.35-.4c-.21-.25-.54-.51-.16-.82s.55.1.78.31S13.92,17.62,14.18,17.6Z"/></svg>