<svg width="133" height="54" viewBox="0 0 133 54" fill="none" xmlns="http://www.w3.org/2000/svg">
<g clip-path="url(#clip0_104_164)">
<path d="M42.6149 34.4097C42.6149 34.4097 25.5789 34.9164 20.498 24.0868C20.498 24.0868 28.4182 25.9656 31.5564 22.1869C34.6946 18.4082 39.9001 9.22521 51.0332 15.1361L42.6149 34.4097Z" fill="#E6326F"/>
<path d="M90.0864 34.4097C90.0864 34.4097 107.147 34.9164 112.203 24.0868C112.203 24.0868 104.308 25.9656 101.145 22.1869C97.9817 18.4082 92.8261 9.22521 81.6929 15.1361L90.0864 34.4097Z" fill="#E6326F"/>
<path d="M56.0144 34.4097C56.0144 34.4097 56.8114 41.1016 33.0756 40.2572C33.0756 40.2572 38.0569 39.2229 38.3558 32.5942C38.6546 25.9656 40.1739 11.0195 57.8326 12.0328L63.9346 17.2049L56.0144 34.4097Z" fill="#C21F57"/>
<path d="M76.7117 34.4097C76.7117 34.4097 75.8896 41.1016 99.6254 40.2572C99.6254 40.2572 94.6442 39.2229 94.3702 32.5942C94.0962 25.9656 92.5271 11.0195 74.8685 12.0328L68.7913 17.2049L76.7117 34.4097Z" fill="#C21F57"/>
<path d="M66.3504 53.9999C66.3504 53.9999 31.8551 22.1868 66.3504 11.1884C100.846 22.1868 66.3504 53.9999 66.3504 53.9999Z" fill="#E6326F"/>
<path d="M94.2956 13.806C82.1662 20.1391 74.8685 13.215 74.8685 13.215C74.6878 15.4336 73.8279 17.5739 72.3735 19.4249C70.9191 21.2759 68.9204 22.7735 66.5748 23.7701C66.438 23.812 66.2881 23.812 66.1513 23.7701C63.8056 22.7712 61.806 21.2736 60.3479 19.4234C58.8898 17.5733 58.0231 15.434 57.8326 13.215C57.8326 13.215 50.56 20.1602 38.4057 13.806C38.3229 13.7632 38.2575 13.6999 38.2186 13.6246C38.1797 13.5492 38.169 13.4656 38.188 13.385C38.2071 13.3043 38.2549 13.2306 38.325 13.1737C38.3951 13.1169 38.4842 13.0798 38.5801 13.0672C42.9885 12.4761 57.9073 9.87953 63.9844 1.13989C64.2291 0.789841 64.5771 0.499848 64.9941 0.298395C65.4112 0.0969419 65.883 -0.0090332 66.3631 -0.0090332C66.8431 -0.0090332 67.3149 0.0969419 67.732 0.298395C68.149 0.499848 68.497 0.789841 68.7416 1.13989C74.7939 9.87953 89.7128 12.4761 94.1212 13.0672C94.2171 13.0798 94.3061 13.1169 94.3762 13.1737C94.4463 13.2306 94.4941 13.3043 94.5131 13.385C94.5322 13.4656 94.5215 13.5492 94.4826 13.6246C94.4437 13.6999 94.3784 13.7632 94.2956 13.806Z" fill="#0E7C3E"/>
<path d="M66.3505 20.3924V3.31421C66.3505 3.31421 75.4663 13.0249 88.1436 13.3627" stroke="#01072C" stroke-width="0.232029" stroke-miterlimit="10"/>
<path d="M45.0057 13.6794C45.0057 13.6794 63.3368 11.7795 66.3505 2.84985" stroke="#01072C" stroke-width="0.232029" stroke-miterlimit="10"/>
<path d="M78.7787 18.7036C84.2831 25.6278 81.095 34.4941 76.587 41.6294" stroke="#01072C" stroke-width="0.232029" stroke-miterlimit="10"/>
<path d="M57.708 43.9937C51.7305 35.5496 46.5748 23.6434 57.0106 15.7482" stroke="#01072C" stroke-width="0.232029" stroke-miterlimit="10"/>
<path d="M94.3702 32.5942C94.1211 28.6044 93.4984 21.5746 89.1896 16.8671" stroke="#01072C" stroke-width="0.232029" stroke-miterlimit="10"/>
<path d="M38.1814 32.5942C38.4305 28.6044 39.0532 21.5746 43.362 16.8671" stroke="#01072C" stroke-width="0.232029" stroke-miterlimit="10"/>
<path fill-rule="evenodd" clip-rule="evenodd" d="M123.037 7.07184C123.037 7.68404 123.237 8.29625 123.336 8.8029C123.389 9.0887 123.346 9.38131 123.212 9.64729C123.064 9.96221 122.947 10.2871 122.863 10.6184C122.863 10.8717 122.689 11.1039 122.614 11.315C122.551 11.5013 122.476 11.6845 122.39 11.8639C122.306 12.0697 122.197 12.2677 122.066 12.455C121.892 12.7083 122.066 12.7294 122.066 12.8138H122.24C122.24 12.8138 122.241 12.8138 122.465 12.8138H122.714C123.16 12.85 123.593 12.9651 123.984 13.1516C124.484 13.3865 124.911 13.7195 125.229 14.1227C125.587 14.5774 125.762 15.1179 125.727 15.6637C125.686 16.0813 125.514 16.4821 125.229 16.8248C124.912 17.2023 124.505 17.5187 124.034 17.7536C123.152 18.2151 122.131 18.4498 121.095 18.4292C121.348 18.0499 121.64 17.6897 121.967 17.3526C122.186 17.0785 122.427 16.8175 122.689 16.5715C122.689 16.5715 122.888 16.107 123.112 15.7271C123.272 15.4452 123.413 15.1562 123.536 14.8615C123.561 14.7713 123.561 14.6773 123.536 14.5871C123.555 14.5248 123.555 14.4594 123.536 14.3971C123.446 14.2723 123.328 14.1644 123.187 14.0805L122.963 13.9327L122.764 13.8271C122.606 13.8106 122.447 13.8106 122.29 13.8271C121.767 14.2705 120.97 14.4393 120.024 15.136C119.255 15.6805 118.42 16.1546 117.533 16.5504C116.886 15.9382 116.313 15.136 115.391 15.3471C114.686 15.4374 114.013 15.6611 113.424 16.0015C112.045 15.4197 110.488 15.2133 108.965 15.4104C109.636 15.024 110.457 14.8727 111.257 14.9882C111.929 14.2282 111.63 14.0383 110.983 13.7638C110.54 13.8304 110.083 13.7939 109.663 13.6583C109.157 13.4897 108.631 13.3693 108.094 13.2994C107.147 13.2994 107.297 12.5816 106.375 12.3072C104.868 12.0068 103.38 11.6404 101.917 11.2095C99.6753 10.3651 97.6081 9.64734 95.5409 8.97182C93.4737 8.29629 91.481 7.62076 89.1896 6.86079C88.2169 6.589 87.1757 6.54524 86.1761 6.73414C85.2047 6.8608 84.3081 7.09297 83.4115 7.1563C86.0446 7.00516 88.6807 7.41141 91.0826 8.33847C93.6292 9.30886 96.0291 10.535 98.2307 11.9906C100.547 13.4261 102.789 15.0304 105.155 16.5081C107.518 18.0703 110.114 19.3621 112.876 20.3502L113.772 20.6035C114.081 20.6891 114.397 20.7526 114.719 20.7935C116.984 21.2543 119.323 21.3969 121.643 21.2157H122.539L123.436 21.0679C124.064 20.9448 124.68 20.7826 125.279 20.5824C126.644 20.1552 127.89 19.4941 128.94 18.6403C129.389 18.2735 129.813 17.8859 130.211 17.4792L130.783 16.8248L131.057 16.4871L131.306 16.1282C132.02 15.0834 132.509 13.9399 132.751 12.7505C132.751 12.4338 132.876 12.1172 132.9 11.8006C132.925 11.4839 132.9 11.1462 132.9 10.8084C132.925 10.478 132.925 10.1466 132.9 9.81621V9.33065C132.889 9.17601 132.889 9.02087 132.9 8.86623C132.619 7.59275 132.006 6.38846 131.107 5.34085C130.871 5.06603 130.613 4.80502 130.335 4.55972C130.045 4.33097 129.737 4.1194 129.413 3.92644C129.108 3.7443 128.772 3.60196 128.417 3.50421L127.919 3.39868H127.421C127.047 3.39868 126.574 3.842 126.201 4.26421C125.973 4.52289 125.773 4.7984 125.603 5.08748C125.231 5.09372 124.863 5.14346 124.507 5.23526C124.18 5.3238 123.881 5.47561 123.635 5.67862C123.414 5.85508 123.245 6.07303 123.141 6.315C123.037 6.55697 123.002 6.81617 123.037 7.07184ZM123.61 17.817C123.61 17.7115 123.909 17.817 123.909 17.817C123.909 17.817 123.635 17.9226 123.511 17.817H123.61ZM113.075 19.6325C113.075 19.6325 113.324 19.8224 113.075 19.8013V19.6325ZM129.787 20.0124C129.787 20.308 129.438 20.0124 129.289 20.1602C129.14 20.308 129.638 20.0547 129.837 20.0547L129.787 20.0124Z" fill="#0E7C3E"/>
<path fill-rule="evenodd" clip-rule="evenodd" d="M10.087 7.07191C10.087 7.68411 9.88778 8.29632 9.76325 8.80296C9.71043 9.08876 9.75355 9.38138 9.88775 9.64736C10.0457 9.96112 10.1706 10.2861 10.2613 10.6185L10.4855 11.3151C10.5485 11.5013 10.6234 11.6846 10.7097 11.864C10.7995 12.0714 10.9163 12.2697 11.0583 12.4551C11.2077 12.7084 11.0583 12.7295 11.0583 12.8139C11.0094 12.8256 10.9577 12.8256 10.9088 12.8139H10.7345C10.7345 12.8139 10.6101 12.8139 10.5353 12.8139H10.2862C9.83162 12.8496 9.39079 12.9646 8.99115 13.1517C8.49298 13.3815 8.07263 13.7159 7.77061 14.1228C7.39355 14.5707 7.20905 15.1145 7.24768 15.6638C7.28938 16.0814 7.46132 16.4821 7.74584 16.8249C8.06905 17.1976 8.47513 17.5131 8.94129 17.7537C9.82431 18.213 10.8444 18.4475 11.8802 18.4292C11.6088 18.1019 11.3001 17.7978 10.9587 17.5215C10.5602 17.0993 10.2863 16.6982 10.2365 16.7404C10.1867 16.7827 10.0371 16.276 9.81295 15.896C9.64662 15.6194 9.5132 15.3295 9.41452 15.0305C9.37846 14.9416 9.37846 14.845 9.41452 14.7561C9.40514 14.693 9.40514 14.6292 9.41452 14.5661C9.51088 14.446 9.62852 14.3392 9.76325 14.2494L9.98732 14.1017C10.053 14.0542 10.1293 14.0182 10.2115 13.9961C10.3685 13.977 10.5278 13.977 10.6848 13.9961C11.1829 14.4394 11.9798 14.6083 12.9263 15.305C13.6924 15.8528 14.5277 16.3271 15.4169 16.7193C16.0645 16.1071 16.6125 15.3049 17.534 15.516C18.2406 15.6027 18.914 15.8267 19.5016 16.1704C20.8832 15.5965 22.4373 15.3904 23.9598 15.5793C23.2901 15.1909 22.4679 15.0394 21.6684 15.1572C20.9959 14.3972 21.2948 14.2072 21.9423 13.9327C22.3855 13.9993 22.8418 13.9628 23.2625 13.8272C23.7549 13.6782 24.2639 13.5721 24.7817 13.5106C25.7531 13.5106 25.5787 12.7928 26.5003 12.5184C28.0077 12.218 29.4959 11.8515 30.9586 11.4206C33.2002 10.5762 35.2923 9.85846 37.3346 9.18293C39.3769 8.50741 41.3943 7.83188 43.7106 7.07191C44.6747 6.79979 45.708 6.756 46.6993 6.94525C47.6706 7.07191 48.5672 7.30415 49.4888 7.36748C46.8476 7.21636 44.2035 7.62253 41.7928 8.54965C39.2462 9.52004 36.8463 10.7462 34.6447 12.2017C32.3533 13.6372 30.1117 15.2416 27.7206 16.7193C25.3569 18.2815 22.7611 19.5732 19.9997 20.5614C19.7075 20.6618 19.408 20.7464 19.1031 20.8147C18.7944 20.9003 18.4779 20.9638 18.1567 21.0047C15.8916 21.4662 13.5523 21.6089 11.2326 21.4269H10.336L9.43945 21.2791C8.81995 21.156 8.2121 20.9936 7.62118 20.7936C6.25335 20.3714 5.00591 19.7097 3.96002 18.8515C3.50508 18.4901 3.08061 18.1021 2.68977 17.6904L2.11697 17.0359L1.81811 16.6982L1.56895 16.3393C0.864054 15.2934 0.383385 14.1498 0.149272 12.9617C0.0750475 12.6481 0.0251341 12.3308 -0.000160169 12.0118C-0.000160169 11.674 -0.000160169 11.3573 -0.000160169 11.0196C-0.000160169 10.6818 -0.000160169 10.344 -0.000160169 10.0274V9.54184C-0.0119909 9.38719 -0.0119909 9.23205 -0.000160169 9.07741C0.282971 7.80807 0.886224 6.6055 1.76825 5.55197C2.00453 5.27714 2.26248 5.0162 2.54034 4.7709C2.83004 4.54216 3.13793 4.33058 3.46186 4.13762C3.77282 3.96361 4.10736 3.82184 4.45818 3.71539L4.95634 3.60986H5.45434C5.82794 3.60986 6.32619 4.05319 6.67488 4.47539C6.91359 4.72778 7.11435 5.0043 7.27261 5.29866C7.64436 5.30322 8.01342 5.353 8.36849 5.44644C8.69566 5.53498 8.99402 5.68673 9.24016 5.88974C9.47401 6.02295 9.67083 6.19771 9.81706 6.40184C9.96329 6.60598 10.0555 6.8346 10.087 7.07191ZM9.48916 17.8171C9.48916 17.7115 9.1903 17.8171 9.1903 17.8171C9.1903 17.8171 9.36463 17.9226 9.48916 17.8171ZM19.9002 19.6747C19.9002 19.6747 19.6511 19.8648 19.9002 19.8436C19.9002 19.8436 19.95 19.6325 19.9002 19.6325V19.6747ZM3.18793 20.0548C3.18793 20.3503 3.53662 20.0547 3.66115 20.2025C3.78569 20.3503 3.4868 20.0548 3.18793 20.0548Z" fill="#0E7C3E"/>
</g>
<defs>
<clipPath id="clip0_104_164">
<rect width="133" height="54" fill="white"/>
</clipPath>
</defs>
</svg>
