<svg width="133" height="54" viewBox="0 0 133 54" fill="none" xmlns="http://www.w3.org/2000/svg">
<g clip-path="url(#clip0_104_196)">
<path d="M42.6149 19.5903C42.6149 19.5903 25.5789 19.0836 20.498 29.9132C20.498 29.9132 28.4182 28.0344 31.5564 31.8131C34.6946 35.5918 39.9001 44.7748 51.0332 38.8639L42.6149 19.5903Z" fill="#E6326F"/>
<path d="M90.0864 19.5903C90.0864 19.5903 107.147 19.0836 112.203 29.9132C112.203 29.9132 104.308 28.0344 101.145 31.8131C97.9817 35.5918 92.8261 44.7748 81.6929 38.8639L90.0864 19.5903Z" fill="#E6326F"/>
<path d="M56.0144 19.5903C56.0144 19.5903 56.8114 12.8984 33.0756 13.7428C33.0756 13.7428 38.0569 14.7771 38.3558 21.4058C38.6546 28.0344 40.1739 42.9805 57.8326 41.9672L63.9346 36.7951L56.0144 19.5903Z" fill="#C21F57"/>
<path d="M76.7117 19.5903C76.7117 19.5903 75.8896 12.8984 99.6254 13.7428C99.6254 13.7428 94.6442 14.7771 94.3702 21.4058C94.0962 28.0344 92.5271 42.9805 74.8685 41.9672L68.7913 36.7951L76.7117 19.5903Z" fill="#C21F57"/>
<path d="M66.3504 8.01086e-05C66.3504 8.01086e-05 31.8551 31.8132 66.3504 42.8116C100.846 31.8132 66.3504 8.01086e-05 66.3504 8.01086e-05Z" fill="#E6326F"/>
<path d="M94.2956 40.194C82.1662 33.8609 74.8685 40.785 74.8685 40.785C74.6878 38.5664 73.8279 36.4261 72.3735 34.5751C70.9191 32.7241 68.9204 31.2265 66.5748 30.2299C66.438 30.188 66.2881 30.188 66.1513 30.2299C63.8056 31.2288 61.806 32.7264 60.3479 34.5766C58.8898 36.4267 58.0231 38.566 57.8326 40.785C57.8326 40.785 50.56 33.8398 38.4057 40.194C38.3229 40.2368 38.2575 40.3001 38.2186 40.3754C38.1797 40.4508 38.169 40.5344 38.188 40.615C38.2071 40.6957 38.2549 40.7694 38.325 40.8263C38.3951 40.8831 38.4842 40.9202 38.5801 40.9328C42.9885 41.5239 57.9073 44.1205 63.9844 52.8601C64.2291 53.2102 64.5771 53.5002 64.9941 53.7016C65.4112 53.9031 65.883 54.009 66.3631 54.009C66.8431 54.009 67.3149 53.9031 67.732 53.7016C68.149 53.5002 68.497 53.2102 68.7416 52.8601C74.7939 44.1205 89.7128 41.5239 94.1212 40.9328C94.2171 40.9202 94.3061 40.8831 94.3762 40.8263C94.4463 40.7694 94.4941 40.6957 94.5131 40.615C94.5322 40.5344 94.5215 40.4508 94.4826 40.3754C94.4437 40.3001 94.3784 40.2368 94.2956 40.194Z" fill="#0E7C3E"/>
<path d="M66.3505 33.6076V50.6858C66.3505 50.6858 75.4663 40.9751 88.1436 40.6373" stroke="#01072C" stroke-width="0.232029" stroke-miterlimit="10"/>
<path d="M45.0057 40.3206C45.0057 40.3206 63.3368 42.2205 66.3505 51.1501" stroke="#01072C" stroke-width="0.232029" stroke-miterlimit="10"/>
<path d="M78.7787 35.2964C84.2831 28.3722 81.095 19.5059 76.587 12.3706" stroke="#01072C" stroke-width="0.232029" stroke-miterlimit="10"/>
<path d="M57.708 10.0063C51.7305 18.4504 46.5748 30.3566 57.0106 38.2518" stroke="#01072C" stroke-width="0.232029" stroke-miterlimit="10"/>
<path d="M94.3702 21.4058C94.1211 25.3956 93.4984 32.4254 89.1896 37.1329" stroke="#01072C" stroke-width="0.232029" stroke-miterlimit="10"/>
<path d="M38.1814 21.4058C38.4305 25.3956 39.0532 32.4254 43.362 37.1329" stroke="#01072C" stroke-width="0.232029" stroke-miterlimit="10"/>
<path fill-rule="evenodd" clip-rule="evenodd" d="M123.037 46.9282C123.037 46.316 123.237 45.7037 123.336 45.1971C123.389 44.9113 123.346 44.6187 123.212 44.3527C123.064 44.0378 122.947 43.7129 122.863 43.3816C122.863 43.1283 122.689 42.8961 122.614 42.685C122.551 42.4987 122.476 42.3155 122.39 42.1361C122.306 41.9303 122.197 41.7323 122.066 41.545C121.892 41.2917 122.066 41.2706 122.066 41.1862H122.24C122.24 41.1862 122.241 41.1862 122.465 41.1862H122.714C123.16 41.15 123.593 41.0349 123.984 40.8484C124.484 40.6135 124.911 40.2805 125.229 39.8773C125.587 39.4226 125.762 38.8821 125.727 38.3363C125.686 37.9187 125.514 37.5179 125.229 37.1752C124.912 36.7977 124.505 36.4813 124.034 36.2464C123.152 35.7849 122.131 35.5502 121.095 35.5708C121.348 35.9501 121.64 36.3103 121.967 36.6474C122.186 36.9215 122.427 37.1825 122.689 37.4285C122.689 37.4285 122.888 37.893 123.112 38.2729C123.272 38.5548 123.413 38.8438 123.536 39.1385C123.561 39.2287 123.561 39.3227 123.536 39.4129C123.555 39.4752 123.555 39.5406 123.536 39.6029C123.446 39.7277 123.328 39.8356 123.187 39.9195L122.963 40.0673L122.764 40.1729C122.606 40.1894 122.447 40.1894 122.29 40.1729C121.767 39.7295 120.97 39.5607 120.024 38.864C119.255 38.3195 118.42 37.8454 117.533 37.4496C116.886 38.0618 116.313 38.864 115.391 38.6529C114.686 38.5626 114.013 38.3389 113.424 37.9985C112.045 38.5803 110.488 38.7867 108.965 38.5896C109.636 38.976 110.457 39.1273 111.257 39.0118C111.929 39.7718 111.63 39.9617 110.983 40.2362C110.54 40.1696 110.083 40.2061 109.663 40.3417C109.157 40.5103 108.631 40.6307 108.094 40.7006C107.147 40.7006 107.297 41.4184 106.375 41.6928C104.868 41.9932 103.38 42.3596 101.917 42.7905C99.6753 43.6349 97.6081 44.3527 95.5409 45.0282C93.4737 45.7037 91.481 46.3792 89.1896 47.1392C88.2169 47.411 87.1757 47.4548 86.1761 47.2659C85.2047 47.1392 84.3081 46.907 83.4115 46.8437C86.0446 46.9948 88.6807 46.5886 91.0826 45.6615C93.6292 44.6911 96.0291 43.465 98.2307 42.0094C100.547 40.5739 102.789 38.9696 105.155 37.4919C107.518 35.9297 110.114 34.6379 112.876 33.6498L113.772 33.3965C114.081 33.3109 114.397 33.2474 114.719 33.2065C116.984 32.7457 119.323 32.6031 121.643 32.7843H122.539L123.436 32.9321C124.064 33.0552 124.68 33.2174 125.279 33.4176C126.644 33.8448 127.89 34.5059 128.94 35.3597C129.389 35.7265 129.813 36.1141 130.211 36.5208L130.783 37.1752L131.057 37.5129L131.306 37.8718C132.02 38.9166 132.509 40.0601 132.751 41.2495C132.751 41.5662 132.876 41.8828 132.9 42.1994C132.925 42.5161 132.9 42.8538 132.9 43.1916C132.925 43.522 132.925 43.8534 132.9 44.1838V44.6693C132.889 44.824 132.889 44.9791 132.9 45.1338C132.619 46.4072 132.006 47.6115 131.107 48.6591C130.871 48.934 130.613 49.195 130.335 49.4403C130.045 49.669 129.737 49.8806 129.413 50.0736C129.108 50.2557 128.772 50.398 128.417 50.4958L127.919 50.6013H127.421C127.047 50.6013 126.574 50.158 126.201 49.7358C125.973 49.4771 125.773 49.2016 125.603 48.9125C125.231 48.9063 124.863 48.8565 124.507 48.7647C124.18 48.6762 123.881 48.5244 123.635 48.3214C123.414 48.1449 123.245 47.927 123.141 47.685C123.037 47.443 123.002 47.1838 123.037 46.9282ZM123.61 36.183C123.61 36.2885 123.909 36.183 123.909 36.183C123.909 36.183 123.635 36.0774 123.511 36.183H123.61ZM113.075 34.3675C113.075 34.3675 113.324 34.1776 113.075 34.1987V34.3675ZM129.787 33.9876C129.787 33.692 129.438 33.9876 129.289 33.8398C129.14 33.692 129.638 33.9453 129.837 33.9453L129.787 33.9876Z" fill="#0E7C3E"/>
<path fill-rule="evenodd" clip-rule="evenodd" d="M10.087 46.9281C10.087 46.3159 9.88778 45.7037 9.76325 45.197C9.71043 44.9112 9.75355 44.6186 9.88775 44.3526C10.0457 44.0389 10.1706 43.7139 10.2613 43.3815L10.4855 42.6849C10.5485 42.4987 10.6234 42.3154 10.7097 42.136C10.7995 41.9286 10.9163 41.7303 11.0583 41.5449C11.2077 41.2916 11.0583 41.2705 11.0583 41.1861C11.0094 41.1744 10.9577 41.1744 10.9088 41.1861H10.7345C10.7345 41.1861 10.6101 41.1861 10.5353 41.1861H10.2862C9.83162 41.1504 9.39079 41.0354 8.99115 40.8483C8.49298 40.6185 8.07263 40.2841 7.77061 39.8772C7.39355 39.4293 7.20905 38.8855 7.24768 38.3362C7.28938 37.9186 7.46132 37.5179 7.74584 37.1751C8.06905 36.8024 8.47513 36.4869 8.94129 36.2463C9.82431 35.787 10.8444 35.5525 11.8802 35.5708C11.6088 35.8981 11.3001 36.2022 10.9587 36.4785C10.5602 36.9007 10.2863 37.3018 10.2365 37.2596C10.1867 37.2173 10.0371 37.724 9.81295 38.104C9.64662 38.3806 9.5132 38.6705 9.41452 38.9695C9.37846 39.0584 9.37846 39.155 9.41452 39.2439C9.40514 39.307 9.40514 39.3708 9.41452 39.4339C9.51088 39.554 9.62852 39.6608 9.76325 39.7506L9.98732 39.8983C10.053 39.9458 10.1293 39.9818 10.2115 40.0039C10.3685 40.023 10.5278 40.023 10.6848 40.0039C11.1829 39.5606 11.9798 39.3917 12.9263 38.695C13.6924 38.1472 14.5277 37.6729 15.4169 37.2807C16.0645 37.8929 16.6125 38.6951 17.534 38.484C18.2406 38.3973 18.914 38.1733 19.5016 37.8296C20.8832 38.4035 22.4373 38.6096 23.9598 38.4207C23.2901 38.8091 22.4679 38.9606 21.6684 38.8428C20.9959 39.6028 21.2948 39.7928 21.9423 40.0673C22.3855 40.0007 22.8418 40.0372 23.2625 40.1728C23.7549 40.3218 24.2639 40.4279 24.7817 40.4894C25.7531 40.4894 25.5787 41.2072 26.5003 41.4816C28.0077 41.782 29.4959 42.1485 30.9586 42.5794C33.2002 43.4238 35.2923 44.1415 37.3346 44.8171C39.3769 45.4926 41.3943 46.1681 43.7106 46.9281C44.6747 47.2002 45.708 47.244 46.6993 47.0547C47.6706 46.9281 48.5672 46.6958 49.4888 46.6325C46.8476 46.7836 44.2035 46.3775 41.7928 45.4503C39.2462 44.48 36.8463 43.2538 34.6447 41.7983C32.3533 40.3628 30.1117 38.7584 27.7206 37.2807C25.3569 35.7185 22.7611 34.4268 19.9997 33.4386C19.7075 33.3382 19.408 33.2536 19.1031 33.1853C18.7944 33.0997 18.4779 33.0362 18.1567 32.9953C15.8916 32.5338 13.5523 32.3911 11.2326 32.5731H10.336L9.43945 32.7209C8.81995 32.844 8.2121 33.0064 7.62118 33.2064C6.25335 33.6286 5.00591 34.2903 3.96002 35.1485C3.50508 35.5099 3.08061 35.8979 2.68977 36.3096L2.11697 36.9641L1.81811 37.3018L1.56895 37.6607C0.864054 38.7066 0.383385 39.8502 0.149272 41.0383C0.0750475 41.3519 0.0251341 41.6692 -0.000160169 41.9882C-0.000160169 42.326 -0.000160169 42.6427 -0.000160169 42.9804C-0.000160169 43.3182 -0.000160169 43.656 -0.000160169 43.9726V44.4582C-0.0119909 44.6128 -0.0119909 44.7679 -0.000160169 44.9226C0.282971 46.1919 0.886224 47.3945 1.76825 48.448C2.00453 48.7229 2.26248 48.9838 2.54034 49.2291C2.83004 49.4578 3.13793 49.6694 3.46186 49.8624C3.77282 50.0364 4.10736 50.1782 4.45818 50.2846L4.95634 50.3901H5.45434C5.82794 50.3901 6.32619 49.9468 6.67488 49.5246C6.91359 49.2722 7.11435 48.9957 7.27261 48.7013C7.64436 48.6968 8.01342 48.647 8.36849 48.5536C8.69566 48.465 8.99402 48.3133 9.24016 48.1103C9.47401 47.977 9.67083 47.8023 9.81706 47.5982C9.96329 47.394 10.0555 47.1654 10.087 46.9281ZM9.48916 36.1829C9.48916 36.2885 9.1903 36.1829 9.1903 36.1829C9.1903 36.1829 9.36463 36.0774 9.48916 36.1829ZM19.9002 34.3253C19.9002 34.3253 19.6511 34.1352 19.9002 34.1564C19.9002 34.1564 19.95 34.3675 19.9002 34.3675V34.3253ZM3.18793 33.9452C3.18793 33.6497 3.53662 33.9453 3.66115 33.7975C3.78569 33.6497 3.4868 33.9452 3.18793 33.9452Z" fill="#0E7C3E"/>
</g>
<defs>
<clipPath id="clip0_104_196">
<rect width="133" height="54" fill="white" transform="matrix(1 0 0 -1 0 54)"/>
</clipPath>
</defs>
</svg>
