<svg width="75" height="52" viewBox="0 0 75 52" fill="none" xmlns="http://www.w3.org/2000/svg">
<path d="M57.6767 14.5526C56.9733 6.59541 48.9723 0 48.9723 0C48.7716 0.568531 48.5637 1.11347 48.3487 1.63481C48.3184 1.70672 48.2892 1.77862 48.2588 1.84941C47.9056 2.70028 47.5008 3.52878 47.0465 4.33027C47.0094 4.39656 46.9712 4.46285 46.9341 4.52914C46.8634 4.64937 46.7926 4.76734 46.7207 4.88532C46.7207 4.88532 46.7128 4.89768 46.7083 4.90442C46.6364 5.01678 46.5634 5.13588 46.4892 5.24936C46.4364 5.33138 46.3836 5.41228 46.3274 5.49317C46.3225 5.50155 46.3169 5.50945 46.3105 5.51677C46.2712 5.57744 46.2308 5.63699 46.1881 5.69654C46.1454 5.75609 46.1061 5.81564 46.0634 5.87407C46.0207 5.93249 45.9679 6.0089 45.9184 6.07519C45.8443 6.17631 45.7679 6.27743 45.6937 6.37743C45.6195 6.47743 45.5398 6.57518 45.4611 6.67293V6.6808C45.3926 6.76394 45.3252 6.84709 45.2555 6.93023C45.1623 7.04259 45.0668 7.15495 44.9701 7.26056C44.9207 7.31674 44.8713 7.37292 44.8196 7.42798C43.7263 8.63807 42.4061 9.75154 40.7601 10.8594C36.577 13.6762 28.176 14.893 27.221 15.0245L27.1311 15.0369L23.6626 15.9166L21.9334 16.3559L20.6491 16.8638L19.8233 17.1908C9.02123 21.4671 5.91004 33.5883 12.3706 43.2566C15.929 48.5802 21.6963 51.597 28.0221 51.9678C37.1579 52.5003 44.6196 44.5229 44.6196 35.3714C44.6159 32.1596 43.6817 29.0178 41.93 26.3258C40.1782 23.6339 37.684 21.5072 34.7489 20.2031C40.1298 20.4491 44.2994 23.0794 47.2735 25.921L47.4398 26.0805L47.6049 26.2423L47.7667 26.4041C47.897 26.5352 48.0248 26.6666 48.1498 26.7985C48.2083 26.8603 48.2622 26.9209 48.324 26.9827C48.4678 27.137 48.6083 27.2906 48.7453 27.4434C48.8038 27.5097 48.8577 27.5749 48.9195 27.6412C48.9375 27.6603 48.9532 27.6794 48.9701 27.6985C49.1015 27.849 49.2307 27.9996 49.3555 28.1479L49.5094 28.3344C49.5521 28.3853 49.5937 28.4359 49.6341 28.4861L49.7644 28.6479L49.9094 28.831C50.5723 29.6715 51.1195 30.4602 51.5543 31.1332L51.6824 31.3332C52.0887 31.9637 52.4608 32.6155 52.797 33.286C56.534 28.358 58.3812 22.5109 57.6767 14.5526ZM42.5971 35.3714C42.5971 38.254 41.7423 41.072 40.1408 43.4688C38.5393 45.8657 36.2629 47.7338 33.5997 48.837C30.9365 49.9401 28.0059 50.2288 25.1786 49.6664C22.3513 49.104 19.7543 47.7159 17.7159 45.6775C15.6776 43.6391 14.2894 41.0421 13.7271 38.2148C13.1647 35.3875 13.4533 32.457 14.5565 29.7937C15.6596 27.1305 17.5277 24.8542 19.9246 23.2527C22.3215 21.6511 25.1394 20.7963 28.0221 20.7963C29.9361 20.7962 31.8315 21.1731 33.5999 21.9055C35.3683 22.6379 36.9751 23.7115 38.3285 25.0649C39.682 26.4184 40.7556 28.0252 41.488 29.7936C42.2204 31.562 42.5973 33.4573 42.5971 35.3714Z" fill="#31B7BA"/>
<path d="M48.3948 1.66911L48.3487 1.63428C48.3184 1.70619 48.2891 1.7781 48.2588 1.84888C52.9104 5.39602 55.9621 11.3577 55.9621 18.1138C55.9621 23.1025 54.298 27.6642 51.5543 31.1293L51.6824 31.3293L51.7307 31.2687C54.6037 27.6328 56.1868 22.9609 56.1868 18.1138C56.1868 11.5375 53.2745 5.38591 48.3948 1.66911ZM44.96 7.26004C44.9105 7.31621 44.8611 7.37239 44.8094 7.42745C47.7094 9.90606 49.4408 13.9004 49.4408 18.1104C49.4408 20.9407 48.6903 23.6373 47.2689 25.9126L47.4352 26.0721C48.8363 23.8452 49.6655 21.0902 49.6655 18.1104C49.67 13.6554 47.8116 9.6982 44.96 7.26004Z" fill="#67320F"/>
<path d="M49.3734 3.67383C49.3375 3.93899 49.2869 4.20977 49.2363 4.47157C49.1858 4.73336 49.1296 4.99179 49.0701 5.24571C48.8701 5.05471 48.6757 4.85583 48.4712 4.66932L47.842 4.12775C48.0884 4.04461 48.339 3.96484 48.5937 3.88843C48.8483 3.81203 49.1083 3.74049 49.3734 3.67383Z" fill="#671D10"/>
<path d="M50.8711 5.22119C50.7947 5.48299 50.7161 5.74029 50.6329 5.99421C50.5498 6.24814 50.4621 6.49533 50.3723 6.73915L49.8476 6.09196C49.6678 5.87961 49.4757 5.67961 49.2858 5.47287C49.5419 5.42269 49.8019 5.37587 50.0655 5.33243C50.3329 5.29085 50.6071 5.24816 50.8711 5.22119Z" fill="#671D10"/>
<path d="M52.1576 6.94141C52.0509 7.19196 51.9419 7.4369 51.8295 7.67847C51.7172 7.92004 51.6048 8.1515 51.4801 8.38858C51.3397 8.14813 51.1835 7.9178 51.0363 7.68185L50.9239 7.50544L50.8015 7.33578L50.5588 6.99871C50.8194 6.97848 51.0842 6.9635 51.3531 6.95377L51.7576 6.94141H52.1576Z" fill="#671D10"/>
<path d="M53.2307 8.79796C53.097 9.03279 52.961 9.26425 52.8228 9.49009C52.6846 9.71593 52.5453 9.93952 52.3925 10.1575C52.3419 10.0272 52.2801 9.90356 52.2161 9.77885L52.0318 9.40245C51.9194 9.14852 51.7711 8.91032 51.6363 8.6665C51.8992 8.67774 52.1648 8.69347 52.4329 8.71369C52.7048 8.7328 52.9632 8.76426 53.2307 8.79796Z" fill="#671D10"/>
<path d="M54.0868 10.7605C53.928 10.9792 53.7677 11.1935 53.606 11.4032C53.4442 11.6133 53.2812 11.8167 53.106 12.02C53.0678 11.8852 53.0194 11.7549 52.9711 11.6234L52.8284 11.2302C52.779 11.0987 52.7386 10.965 52.6812 10.838L52.5172 10.4526C52.7779 10.4931 53.0401 10.5384 53.3037 10.5886C53.5723 10.638 53.8239 10.6987 54.0868 10.7605Z" fill="#671D10"/>
<path d="M54.7262 12.8023C54.5441 13.0034 54.3621 13.1989 54.1779 13.3899C53.9936 13.5809 53.8138 13.7674 53.6161 13.9517C53.5936 13.8135 53.5554 13.6787 53.5228 13.5427L53.4239 13.1349C53.3633 12.8618 53.2779 12.5955 53.1992 12.3281C53.4546 12.3963 53.7108 12.4712 53.9677 12.5528C54.2239 12.6247 54.4711 12.7124 54.7262 12.8023Z" fill="#671D10"/>
<path d="M55.1475 14.895C54.9468 15.0762 54.7445 15.2523 54.5408 15.4231C54.3363 15.595 54.1374 15.7601 53.9273 15.9242C53.8958 15.6466 53.8543 15.3691 53.8149 15.0916C53.7756 14.8141 53.7217 14.5399 53.6734 14.2646C53.9183 14.359 54.1655 14.459 54.4127 14.5646C54.6599 14.6703 54.9059 14.7792 55.1475 14.895Z" fill="#671D10"/>
<path d="M55.3542 17.0205C55.1347 17.1801 54.9149 17.3351 54.6947 17.4857C54.4699 17.6363 54.2553 17.7812 54.0351 17.9228L54.0126 17.0823C54.0126 16.9419 53.9969 16.8026 53.9868 16.6632L53.9531 16.2441C54.1868 16.364 54.4213 16.4887 54.6565 16.6183C54.8913 16.7475 55.1295 16.8812 55.3542 17.0205Z" fill="#671D10"/>
<path d="M55.3475 19.1539C55.1146 19.291 54.8824 19.4236 54.6509 19.5516C54.4262 19.6797 54.1779 19.8022 53.9431 19.9202C53.9756 19.6427 53.9891 19.3584 54.006 19.0831C54.0228 18.8078 54.0262 18.5213 54.0329 18.2427C54.2577 18.3857 54.4786 18.5329 54.6958 18.6842C54.9194 18.8359 55.1318 18.9921 55.3475 19.1539Z" fill="#671D10"/>
<path d="M55.1295 21.2765C54.8879 21.3888 54.6374 21.5012 54.3924 21.6012C54.1475 21.7012 53.9014 21.8034 53.6565 21.8978C53.7048 21.6214 53.7587 21.3473 53.8026 21.0709C53.8464 20.7945 53.8846 20.5169 53.9149 20.2383C54.1273 20.4023 54.3261 20.5754 54.5284 20.7439C54.7306 20.9124 54.9295 21.0944 55.1295 21.2765Z" fill="#671D10"/>
<path d="M54.6913 23.3633C54.4362 23.451 54.1868 23.5352 53.9295 23.6117C53.6722 23.6881 53.416 23.76 53.161 23.8274L53.2834 23.4263C53.325 23.2926 53.3554 23.1566 53.3958 23.0218L53.5014 22.615L53.5913 22.2061C53.7801 22.3892 53.9677 22.5791 54.1531 22.7678C54.3385 22.9566 54.5126 23.1656 54.6913 23.3633Z" fill="#671D10"/>
<path d="M54.0385 25.4056C53.7749 25.4648 53.5127 25.5194 53.252 25.5696C52.9947 25.6213 52.7284 25.6629 52.4655 25.7022C52.5835 25.4483 52.679 25.1865 52.7824 24.9269C52.8363 24.7977 52.8812 24.6651 52.9273 24.5337L53.0644 24.1382C53.2318 24.3393 53.4015 24.5472 53.5599 24.7584C53.7183 24.9696 53.8868 25.1865 54.0385 25.4056Z" fill="#671D10"/>
<path d="M53.1689 27.3606C52.9004 27.3909 52.6307 27.4156 52.3655 27.4358C52.1004 27.4561 51.8408 27.474 51.579 27.4797C51.7195 27.2392 51.8465 26.9909 51.9802 26.7471C52.1139 26.5033 52.2307 26.2482 52.3442 25.9932C52.4936 26.2179 52.6307 26.4359 52.7689 26.6673C52.9071 26.8988 53.0363 27.1235 53.1689 27.3606Z" fill="#671D10"/>
<path d="M52.079 29.2064C51.8127 29.2064 51.5396 29.2064 51.2734 29.1895C51.0071 29.1726 50.743 29.1614 50.4868 29.1412C50.6453 28.9165 50.8149 28.6918 50.9666 28.458C51.1183 28.2243 51.2756 27.9951 51.416 27.7524C51.5363 27.9873 51.6565 28.2288 51.7644 28.4682C51.8722 28.7075 51.9767 28.958 52.079 29.2064Z" fill="#671D10"/>
<path d="M47.3173 6.12122C47.3216 6.21409 47.3066 6.30685 47.2734 6.39367C47.2401 6.48049 47.1893 6.55949 47.124 6.6257C46.9946 6.75993 46.8192 6.84021 46.633 6.85042C46.4546 6.85712 46.2802 6.79657 46.1443 6.68076C46.0774 6.62259 46.023 6.55149 45.9844 6.47174C45.9458 6.39198 45.9237 6.30524 45.9195 6.21672C45.9156 6.17149 45.9156 6.126 45.9195 6.08077C45.969 6.01448 46.0173 5.94819 46.0645 5.87965C46.1117 5.81111 46.1488 5.76729 46.1892 5.70212C46.2296 5.63696 46.2723 5.58302 46.3117 5.52235C46.318 5.51503 46.3237 5.50713 46.3285 5.49876C46.3964 5.46848 46.469 5.45024 46.5431 5.44482C46.7368 5.43265 46.9276 5.49677 47.0746 5.62347C47.147 5.68535 47.2059 5.76147 47.2477 5.8471C47.2895 5.93274 47.3131 6.02604 47.3173 6.12122Z" fill="#F7E010"/>
<path d="M48.9431 8.80736C48.7887 8.90882 48.602 8.9489 48.4195 8.91972C48.3307 8.9076 48.2453 8.87791 48.1681 8.83238C48.0909 8.78685 48.0236 8.7264 47.9701 8.65455C47.9173 8.58128 47.8791 8.49849 47.8577 8.41074C47.8344 8.32669 47.8282 8.23878 47.8398 8.15231C47.8615 7.96798 47.9532 7.79903 48.0959 7.68041C48.1674 7.62076 48.2503 7.57641 48.3396 7.55013C48.4289 7.52384 48.5226 7.51618 48.615 7.5276C48.7084 7.53943 48.7988 7.56878 48.8813 7.61412C48.9654 7.6645 49.0384 7.73138 49.0959 7.81074C49.2111 7.96578 49.2608 8.15988 49.2341 8.35118C49.2197 8.4432 49.1865 8.53124 49.1364 8.60975C49.0863 8.68826 49.0205 8.75555 48.9431 8.80736Z" fill="#F7E010"/>
<path d="M50.2914 11.3023C50.1206 11.375 49.9285 11.3798 49.7543 11.3158C49.6713 11.2854 49.595 11.2392 49.5296 11.1798C49.4616 11.1205 49.4056 11.0488 49.3644 10.9686C49.2887 10.8019 49.279 10.6127 49.3374 10.4391C49.3958 10.2656 49.5179 10.1207 49.679 10.0338C49.785 9.98211 49.9021 9.95744 50.0199 9.96195C50.1377 9.96645 50.2526 9.99999 50.3543 10.0596C50.4561 10.1192 50.5415 10.203 50.603 10.3035C50.6646 10.4041 50.7003 10.5183 50.7071 10.636C50.7094 10.7298 50.6941 10.8231 50.6622 10.9113C50.6302 10.9982 50.5808 11.0777 50.517 11.1449C50.4533 11.2122 50.3765 11.2657 50.2914 11.3023Z" fill="#F7E010"/>
<path d="M51.1779 14.0029C51.0435 14.0363 50.9022 14.0294 50.7717 13.9829C50.6412 13.9364 50.5273 13.8525 50.4442 13.7416C50.3612 13.6308 50.3126 13.4979 50.3047 13.3596C50.2968 13.2213 50.3298 13.0837 50.3996 12.9641C50.4694 12.8444 50.573 12.748 50.6973 12.687C50.8217 12.6259 50.9612 12.6028 51.0986 12.6206C51.236 12.6384 51.3651 12.6963 51.4697 12.7871C51.5743 12.8779 51.6499 12.9975 51.6869 13.131C51.7117 13.2217 51.7182 13.3164 51.7059 13.4097C51.6937 13.5029 51.663 13.5927 51.6156 13.6739C51.5682 13.7551 51.5051 13.826 51.4299 13.8825C51.3548 13.939 51.2691 13.9799 51.1779 14.0029Z" fill="#F7E010"/>
<path d="M51.5812 16.8141C51.445 16.826 51.3082 16.7977 51.1878 16.7327C51.0675 16.6676 50.9688 16.5688 50.904 16.4483C50.8392 16.3278 50.8112 16.191 50.8233 16.0547C50.8354 15.9184 50.8872 15.7887 50.9723 15.6816C51.0876 15.5357 51.2545 15.4396 51.4386 15.413C51.5305 15.3994 51.6243 15.405 51.714 15.4293C51.8037 15.4537 51.8875 15.4963 51.9599 15.5546C52.0357 15.6131 52.0984 15.6868 52.1441 15.771C52.1897 15.8552 52.2173 15.9479 52.2251 16.0434C52.2354 16.1366 52.2268 16.231 52.1998 16.3208C52.1727 16.4107 52.1278 16.4941 52.0676 16.5661C52.0075 16.6381 51.9334 16.6972 51.8498 16.7399C51.7662 16.7825 51.6749 16.8077 51.5812 16.8141Z" fill="#F7E010"/>
<path d="M51.506 19.6561C51.3214 19.6357 51.1516 19.5452 51.0318 19.4033C50.9157 19.2651 50.8563 19.088 50.8655 18.9078C50.8786 18.7269 50.9626 18.5585 51.0992 18.4393C51.2361 18.3142 51.4162 18.2473 51.6015 18.2527C51.6946 18.2548 51.7864 18.2758 51.8712 18.3145C51.956 18.3531 52.032 18.4085 52.0947 18.4775C52.1572 18.5492 52.2049 18.6326 52.235 18.7228C52.2651 18.8131 52.277 18.9084 52.27 19.0033C52.2652 19.0986 52.2408 19.192 52.1983 19.2774C52.1557 19.3629 52.096 19.4386 52.0228 19.4999C51.9518 19.5598 51.8694 19.6045 51.7805 19.6313C51.6916 19.6582 51.5982 19.6666 51.506 19.6561Z" fill="#F7E010"/>
<path d="M50.9588 22.4416C50.7775 22.3969 50.6213 22.282 50.5247 22.1222C50.4281 21.9623 50.3989 21.7707 50.4436 21.5893C50.4883 21.408 50.6032 21.2519 50.763 21.1553C50.9229 21.0586 51.1145 21.0295 51.2959 21.0742C51.3856 21.0963 51.4702 21.1359 51.5447 21.1907C51.6192 21.2455 51.6821 21.3145 51.7299 21.3936C51.7778 21.4727 51.8096 21.5605 51.8235 21.6519C51.8374 21.7434 51.8332 21.8366 51.811 21.9264C51.7889 22.0162 51.7493 22.1007 51.6945 22.1752C51.6397 22.2497 51.5707 22.3127 51.4916 22.3605C51.4125 22.4083 51.3247 22.4401 51.2333 22.454C51.1418 22.4679 51.0486 22.4637 50.9588 22.4416Z" fill="#F7E010"/>
<path d="M49.9262 25.0886C49.7627 25.0069 49.6362 24.8664 49.5722 24.6952C49.5082 24.5241 49.5114 24.335 49.5812 24.1661C49.6568 24.0028 49.7912 23.874 49.9576 23.8054C50.1306 23.7374 50.3229 23.7374 50.4958 23.8054C50.5827 23.8386 50.6618 23.8893 50.7281 23.9545C50.7944 24.0196 50.8465 24.0978 50.8812 24.1841C50.9338 24.3159 50.9457 24.4604 50.9155 24.599C50.8852 24.7376 50.8141 24.8639 50.7113 24.9618C50.6085 25.0596 50.4788 25.1244 50.3388 25.1478C50.1989 25.1712 50.0552 25.1521 49.9262 25.0931V25.0886Z" fill="#F7E010"/>
<path d="M49.4195 27.3321C49.3616 27.4146 49.2873 27.4842 49.2013 27.5366C49.1152 27.589 49.0193 27.623 48.9195 27.6366C48.8622 27.5703 48.8071 27.5052 48.7453 27.4389C48.6082 27.2891 48.4678 27.1355 48.324 26.9782C48.2667 26.9164 48.2116 26.8557 48.1498 26.7939C48.1665 26.6985 48.205 26.6081 48.2622 26.5299C48.3686 26.3816 48.5277 26.2795 48.7069 26.2446C48.8861 26.2098 49.0719 26.2447 49.2262 26.3423C49.3059 26.3928 49.3745 26.4591 49.4277 26.537C49.481 26.615 49.5178 26.703 49.5359 26.7956C49.5539 26.8882 49.5529 26.9836 49.5329 27.0759C49.5129 27.1681 49.4743 27.2553 49.4195 27.3321Z" fill="#F7E010"/>
<path d="M44.96 7.26086C44.9105 7.31704 44.8611 7.37322 44.8094 7.42827C47.7094 9.90689 49.4408 13.9012 49.4408 18.1113C49.4408 20.9416 48.6903 23.6381 47.2689 25.9134L47.4352 26.0729C48.8363 23.846 49.6655 21.091 49.6655 18.1113C49.67 13.6563 47.8116 9.69902 44.96 7.26086ZM51.5779 10.2788C50.5404 7.99158 49.0017 5.96709 47.0757 4.35529L47.0465 4.33057C47.0094 4.39686 46.9712 4.46315 46.9341 4.52944C50.6329 7.57996 53.0419 12.5327 53.0419 18.1146C53.0419 22.0988 51.8138 25.7651 49.7655 28.6448L49.9105 28.8279L49.9487 28.774C51.0117 27.2734 51.8339 25.616 52.3857 23.8617C53.7933 19.3886 53.5061 14.5539 51.579 10.2788H51.5779Z" fill="#67320F"/>
<path d="M33.6759 48.4552C33.5303 48.4555 33.3848 48.448 33.2399 48.4327C32.6915 48.3789 32.1592 48.217 31.6737 47.9565C31.1881 47.696 30.7589 47.3419 30.4108 46.9148L17.2054 30.7847C16.8569 30.3602 16.5961 29.8709 16.4378 29.345C16.2796 28.8191 16.2271 28.2671 16.2834 27.7208C16.3397 27.1746 16.5037 26.6449 16.7659 26.1623C17.0281 25.6798 17.3833 25.254 17.811 24.9095L17.8671 24.8634C18.7329 24.1661 19.8388 23.8382 20.9447 23.951C22.0507 24.0637 23.0676 24.608 23.7749 25.4657L36.9803 41.5958C37.3289 42.0203 37.59 42.5097 37.7483 43.0357C37.9066 43.5616 37.9592 44.1138 37.9029 44.6602C37.8465 45.2066 37.6825 45.7364 37.4202 46.2191C37.1579 46.7017 36.8026 47.1276 36.3747 47.4721L36.3186 47.5181C35.5715 48.1248 34.6383 48.4557 33.6759 48.4552ZM20.5165 25.9589C20.0213 25.9577 19.5408 26.1271 19.1559 26.4387L19.0997 26.4848C18.8799 26.6616 18.6974 26.8803 18.5627 27.1282C18.4279 27.3761 18.3436 27.6482 18.3147 27.9288C18.2858 28.2094 18.3127 28.493 18.394 28.7632C18.4754 29.0333 18.6094 29.2847 18.7885 29.5027L31.9928 45.6317C32.3556 46.0725 32.8778 46.3524 33.4458 46.4105C34.0139 46.4685 34.5819 46.3001 35.0264 45.9418L35.0826 45.8957C35.3024 45.7188 35.4849 45.5001 35.6197 45.2522C35.7544 45.0044 35.8387 44.7323 35.8676 44.4516C35.8966 44.171 35.8696 43.8874 35.7883 43.6173C35.707 43.3471 35.5729 43.0958 35.3939 42.8778L22.1929 26.7488C21.9898 26.5007 21.734 26.3011 21.444 26.1645C21.154 26.0278 20.8371 25.9576 20.5165 25.9589Z" fill="#31B7BA"/>
<path d="M13.7712 29.8604L12.1938 31.126L28.5835 51.5545L30.161 50.2889L13.7712 29.8604Z" fill="#31B7BA"/>
<path d="M16.2244 39.3306C15.9801 39.3306 15.7418 39.2547 15.5425 39.1135C15.3431 38.9722 15.1926 38.7726 15.1115 38.5421C15.0305 38.3116 15.023 38.0616 15.0902 37.8267C15.1573 37.5918 15.2957 37.3835 15.4863 37.2306L27.1007 27.9184C27.221 27.8167 27.3604 27.7402 27.5108 27.6932C27.6611 27.6463 27.8194 27.63 27.9762 27.6452C28.1329 27.6604 28.2851 27.7068 28.4236 27.7818C28.5621 27.8567 28.6843 27.9586 28.7828 28.0815C28.8813 28.2044 28.9542 28.3458 28.9972 28.4973C29.0402 28.6489 29.0524 28.8075 29.0332 28.9638C29.0139 29.1201 28.9635 29.271 28.885 29.4076C28.8064 29.5441 28.7014 29.6635 28.5759 29.7588L16.9615 39.071C16.7529 39.2397 16.4927 39.3313 16.2244 39.3306Z" fill="#F7DF00"/>
<path d="M19.6873 42.793C19.443 42.793 19.2047 42.7171 19.0054 42.5759C18.806 42.4346 18.6554 42.235 18.5744 42.0045C18.4934 41.774 18.4859 41.524 18.553 41.2891C18.6201 41.0542 18.7585 40.8459 18.9491 40.693L30.5636 31.3808C30.6838 31.2791 30.8233 31.2026 30.9736 31.1556C31.124 31.1087 31.2822 31.0924 31.439 31.1076C31.5958 31.1228 31.7479 31.1692 31.8865 31.2442C32.025 31.3191 32.1471 31.421 32.2457 31.5439C32.3442 31.6668 32.4171 31.8082 32.4601 31.9597C32.5031 32.1113 32.5153 32.2699 32.496 32.4262C32.4767 32.5825 32.4263 32.7334 32.3478 32.87C32.2693 33.0065 32.1642 33.1259 32.0388 33.2212L20.4244 42.5334C20.2158 42.7021 19.9555 42.7937 19.6873 42.793Z" fill="#F7DF00"/>
<path d="M22.6862 46.6299C22.4416 46.6301 22.203 46.5544 22.0033 46.4131C21.8037 46.2718 21.6529 46.0719 21.5718 45.8412C21.4907 45.6104 21.4834 45.3601 21.5508 45.125C21.6182 44.8899 21.757 44.6815 21.948 44.5288L33.5624 35.2165C33.6833 35.1197 33.8222 35.0476 33.9709 35.0044C34.1197 34.9611 34.2756 34.9476 34.4296 34.9646C34.5836 34.9817 34.7327 35.0288 34.8685 35.1035C35.0042 35.1781 35.124 35.2788 35.2208 35.3997C35.3177 35.5206 35.3898 35.6594 35.433 35.8082C35.4762 35.957 35.4897 36.1128 35.4727 36.2668C35.4557 36.4208 35.4085 36.57 35.3339 36.7057C35.2592 36.8415 35.1586 36.9612 35.0377 37.0581L23.4232 46.3703C23.2144 46.5384 22.9543 46.63 22.6862 46.6299Z" fill="#F7DF00"/>
<path d="M62.6901 6.22643L68.699 3.41748L65.1226 10.3589L75 11.4151L65.3563 17.16L71.2776 21.2633L64.0957 22.6116L70.6619 29.4407L61.2238 27.3306L62.2193 33.6608L57.8239 30.0856C57.8239 30.0856 69.9158 21.1026 62.6901 6.22643Z" fill="#F7DF00"/>
<path d="M6.4426 26.9197L0 27.2714L4.44937 23.6366L0.99099 20.0614L6.85383 20.5883L2.45727 14.9019L10.4347 16.0749L7.32236 3.70654L16.0571 12.9682L20.1604 8.04356L19.8671 13.6131C19.8671 13.6131 7.1909 15.1367 6.4426 26.9197Z" fill="#F7DF00"/>
</svg>
