<svg id="Layer_1" data-name="Layer 1" xmlns="http://www.w3.org/2000/svg" viewBox="0 0 56 56"><defs><style>.cls-1{fill:#eeeded;}.cls-2{fill:#3c8dcc;}.cls-3{fill:#1e1e1c;opacity:0.1;}.cls-4{fill:#ebaf73;}.cls-5{fill:#d5614f;}.cls-6{fill:#434342;}.cls-7{fill:#ea6b57;}.cls-8{fill:#585857;}.cls-9{fill:#e9a497;}.cls-10{fill:#b65444;}.cls-11{fill:#9a483a;}.cls-12{fill:#ffcd32;}.cls-13{fill:#fab612;}.cls-14{fill:#fccfa0;}.cls-15{fill:#fff;}</style></defs><path class="cls-1" d="M10.38,37.14A.59.59,0,0,0,10,36.4a.57.57,0,0,0-.74.37.59.59,0,1,0,1.12.37Z"/><path class="cls-1" d="M12.29,37a.59.59,0,0,0-.38-.74.57.57,0,0,0-.74.37.6.6,0,0,0,.38.75A.59.59,0,0,0,12.29,37Z"/><rect class="cls-1" x="14.44" y="35.84" width="5.52" height="9.56"/><polygon class="cls-2" points="4.51 46.09 4.5 35.36 6.87 35.33 15.82 35.23 15.83 46.02 4.51 46.09"/><path class="cls-1" d="M14.19,37a.6.6,0,0,0-.38-.75.59.59,0,0,0-.37,1.13A.6.6,0,0,0,14.19,37Z"/><path class="cls-3" d="M30.88,40.73l1.06-.13V9.37a3.71,3.71,0,0,0-3.71,3.7,3.66,3.66,0,0,0,.41,1.68C22,15.94,17.09,20.56,17.09,26.07v.05a2.14,2.14,0,0,1-.82.84,2.07,2.07,0,0,1-1.63.2,1.63,1.63,0,0,1-1.14-2A1.22,1.22,0,0,1,15,24.3a.9.9,0,0,1,.63,1.11.63.63,0,0,1-.3.38.6.6,0,0,1-.49.06.41.41,0,1,0-.22.78,1.45,1.45,0,0,0,1.1-.13,1.48,1.48,0,0,0,.69-.88,1.71,1.71,0,0,0-1.19-2.1,2,2,0,0,0-2.51,1.41,2.45,2.45,0,0,0,1.7,3,3.09,3.09,0,0,0,.8.11,2.92,2.92,0,0,0,1.44-.38,2.78,2.78,0,0,0,.51-.37c.5,3.68,3.2,6.84,7,8.69v.78a9,9,0,0,0-2.37,0l-1.9.28V35.84H15.82v-.61l-8.95.1-2.37,0V46.09L15.83,46V45.4H20v-1l3.18.54a35.19,35.19,0,0,0,8.81,1.56V41.1Z"/><rect class="cls-4" x="35.77" y="39.6" width="9.29" height="3.17" rx="1.57" transform="translate(-17.29 41.45) rotate(-45.81)"/><rect class="cls-4" x="38.52" y="38.15" width="9.29" height="3.17" rx="1.57" transform="translate(-15.42 42.91) rotate(-45.74)"/><path class="cls-4" d="M42.51,41.45v0a1.57,1.57,0,0,0-2-1l-5.89,1.94a1.55,1.55,0,0,0-.93,2v0a1.57,1.57,0,0,0,2,1l5.83-2A1.57,1.57,0,0,0,42.51,41.45Z"/><path class="cls-4" d="M48.23,37.61l0,0a1.7,1.7,0,0,0-2.39-.32l-5.3,4a1.7,1.7,0,0,0-.32,2.39l0,0a1.69,1.69,0,0,0,2.38.31l5.31-4A1.7,1.7,0,0,0,48.23,37.61Z"/><path class="cls-4" d="M43.25,42.4v0a1.7,1.7,0,0,0-2-1.38l-6.64,1.15a1.68,1.68,0,0,0-1.31,2v0a1.7,1.7,0,0,0,2,1.38l6.57-1.17A1.71,1.71,0,0,0,43.25,42.4Z"/><rect class="cls-5" x="35.48" y="34.12" width="4.35" height="6.38"/><rect class="cls-5" x="26.4" y="34.12" width="4.35" height="6.38"/><polygon class="cls-6" points="35.48 42.45 37.66 41.81 39.84 42.45 39.84 40.5 35.48 40.5 35.48 42.45"/><polygon class="cls-6" points="26.4 42.45 28.57 41.81 30.75 42.45 30.75 40.5 26.4 40.5 26.4 42.45"/><rect class="cls-7" x="33.31" y="35.1" width="4.35" height="6.38"/><rect class="cls-7" x="24.22" y="35.1" width="4.35" height="6.38"/><polygon class="cls-8" points="33.31 43.43 35.48 42.79 37.66 43.43 37.66 41.48 33.31 41.48 33.31 43.43"/><polygon class="cls-8" points="24.22 43.43 26.4 42.79 28.57 43.43 28.57 41.48 24.22 41.48 24.22 43.43"/><path class="cls-5" d="M40.9,20.84h4.23V14.58a.4.4,0,0,0-.68-.28A11.88,11.88,0,0,0,40.9,20.84Z"/><ellipse class="cls-7" cx="32.03" cy="26.07" rx="14.94" ry="11.63"/><rect class="cls-7" x="42.39" y="22.98" width="7.15" height="7.95"/><path class="cls-9" d="M49.52,23c1.08,0,2,1.75,2,3.95s-.86,4-1.94,4-2-1.74-2-3.94S48.44,23,49.52,23Z"/><path class="cls-10" d="M48.74,26.2c.21,0,.38.33.38.75s-.17.76-.37.77-.38-.34-.38-.75S48.53,26.2,48.74,26.2Z"/><path class="cls-10" d="M50.55,26.2c.21,0,.37.33.38.75s-.17.76-.37.77-.38-.34-.38-.75S50.34,26.2,50.55,26.2Z"/><path class="cls-11" d="M40.9,23a1,1,0,1,0,1-1A1,1,0,0,0,40.9,23Z"/><path class="cls-7" d="M15.22,28.05a3,3,0,0,0,2.84-2.16.41.41,0,1,0-.78-.22,2.11,2.11,0,0,1-1,1.29,2.07,2.07,0,0,1-1.63.2,1.63,1.63,0,0,1-1.14-2A1.22,1.22,0,0,1,15,24.3a.9.9,0,0,1,.63,1.11.63.63,0,0,1-.3.38.6.6,0,0,1-.49.06.41.41,0,1,0-.22.78,1.45,1.45,0,0,0,1.1-.13,1.48,1.48,0,0,0,.69-.88,1.71,1.71,0,0,0-1.19-2.1,2,2,0,0,0-2.51,1.41,2.45,2.45,0,0,0,1.7,3A3.09,3.09,0,0,0,15.22,28.05Z"/><path class="cls-5" d="M39.46,20.84h3.1V14.58a.41.41,0,0,0-.69-.28,12.13,12.13,0,0,0-3.29,5.41A.91.91,0,0,0,39.46,20.84Z"/><path class="cls-11" d="M27.66,18.07a27.85,27.85,0,0,1,8.74,0l.3-1.86a29.86,29.86,0,0,0-9.34,0Z"/><path class="cls-12" d="M35.64,13.07a3.71,3.71,0,1,1-3.7-3.7A3.7,3.7,0,0,1,35.64,13.07Z"/><path class="cls-13" d="M31.94,10.18A2.9,2.9,0,1,1,29,13.07a2.9,2.9,0,0,1,2.9-2.89Zm0-.81a3.7,3.7,0,1,0,3.7,3.7,3.71,3.71,0,0,0-3.7-3.7Z"/><path class="cls-14" d="M17.65,37.4l4.2-.62a8.39,8.39,0,0,1,3,.11l2.62.57a3,3,0,0,0,1,0l6-.68a1.71,1.71,0,0,1,1.89,1.49v0a1.7,1.7,0,0,1-1.49,1.89l-4.06.48,3.95,1.4,6.21.06,5.6-2.78a1.7,1.7,0,0,1,2.28.76l0,0a1.71,1.71,0,0,1-.77,2.29l-6.76,3.14s-5,.86-6.57,1c-.29,0-.71,0-1.13,0A38.44,38.44,0,0,1,23.13,45L17.65,44Z"/><path class="cls-15" d="M32.15,25.38a1.72,1.72,0,0,0-1.56-1c-.8,0-1.61,0-2.41,0-.2,0-.27,0-.26-.25q0-.77,0-1.53c0-.17,0-.24.22-.24h7.6c.15,0,.22,0,.21.2s0,.64,0,1c0,.16-.05.2-.2.2H33.44a4.07,4.07,0,0,1,.78,1.59c0,.13.14.09.22.09.42,0,.83,0,1.24,0,.2,0,.29,0,.27.26a7.66,7.66,0,0,0,0,.83c0,.18,0,.25-.23.24-.42,0-.84,0-1.26,0a.24.24,0,0,0-.28.22,3.63,3.63,0,0,1-2.29,2.58c-.08,0-.2,0-.22.13s.1.13.17.19l3.37,2.66c.11.08.15.15,0,.28-.34.41-.67.83-1,1.26-.13.17-.22.1-.34,0l-4-3.22-1.47-1.17a.37.37,0,0,1-.17-.32c0-.45,0-.91,0-1.37,0-.16.05-.21.21-.21h2.13A1.66,1.66,0,0,0,32,27c.06-.07.13-.15.09-.24s-.15,0-.23,0c-1.23,0-2.45,0-3.68,0-.22,0-.28-.06-.26-.27a6.77,6.77,0,0,0,0-.78c0-.22,0-.29.27-.28,1.19,0,2.38,0,3.58,0Z"/></svg>