<svg width="27" height="27" viewBox="0 0 27 27" fill="none" xmlns="http://www.w3.org/2000/svg">
<path d="M13.125 8.75625C10.7063 8.75625 8.75625 10.725 8.75625 13.125C8.75625 15.525 10.725 17.4937 13.125 17.4937C15.525 17.4937 17.4937 15.525 17.4937 13.125C17.4937 10.725 15.525 8.75625 13.125 8.75625ZM26.25 13.125C26.25 11.3062 26.25 9.525 26.1562 7.70625C26.0625 5.60625 25.575 3.73125 24.0375 2.2125C22.5 0.675 20.6438 0.1875 18.5438 0.0937499C16.725 -9.0804e-08 14.9438 0 13.125 0C11.3062 0 9.525 -9.0804e-08 7.70625 0.0937499C5.60625 0.1875 3.73125 0.675 2.2125 2.2125C0.675 3.75 0.1875 5.60625 0.0937499 7.70625C-9.0804e-08 9.525 0 11.3062 0 13.125C0 14.9438 -9.0804e-08 16.725 0.0937499 18.5438C0.1875 20.6438 0.675 22.5187 2.2125 24.0375C3.75 25.575 5.60625 26.0625 7.70625 26.1562C9.525 26.25 11.3062 26.25 13.125 26.25C14.9438 26.25 16.725 26.25 18.5438 26.1562C20.6438 26.0625 22.5187 25.575 24.0375 24.0375C25.575 22.5 26.0625 20.6438 26.1562 18.5438C26.2687 16.7438 26.25 14.9438 26.25 13.125ZM13.125 19.8563C9.39375 19.8563 6.39375 16.8563 6.39375 13.125C6.39375 9.39375 9.39375 6.39375 13.125 6.39375C16.8563 6.39375 19.8563 9.39375 19.8563 13.125C19.8563 16.8563 16.8563 19.8563 13.125 19.8563ZM20.1375 7.6875C19.275 7.6875 18.5625 6.99375 18.5625 6.1125C18.5625 5.23125 19.2563 4.5375 20.1375 4.5375C21.0187 4.5375 21.7125 5.23125 21.7125 6.1125C21.7172 6.31788 21.6798 6.52205 21.6023 6.71234C21.5249 6.90263 21.4093 7.075 21.2625 7.21875C21.1187 7.36551 20.9464 7.48118 20.7561 7.55859C20.5658 7.636 20.3616 7.67349 20.1562 7.66875L20.1375 7.6875Z" fill="white"/>
</svg>
