<svg id="Layer_1" data-name="Layer 1" xmlns="http://www.w3.org/2000/svg" viewBox="0 0 56 56"><defs><style>.cls-1{fill:#fdc652;}.cls-2{fill:#f8ad43;}.cls-3{fill:#f1eee0;}.cls-4{fill:#e8e4d8;}.cls-5{fill:#db765a;}.cls-6{fill:#f1886c;}.cls-7{fill:#f39a7d;}.cls-8{fill:#b65535;}.cls-9{fill:#ffdf5a;}.cls-10{fill:#a3422b;}.cls-11{fill:#b6b2a5;}.cls-12{fill:#f9f8f2;}.cls-13{fill:#f8ae44;}.cls-14{fill:#908c82;}.cls-15{fill:#4b91ce;}.cls-16{fill:#908d83;}.cls-17{fill:#803a2d;}.cls-18{fill:#d9d5ca;}</style></defs><path class="cls-1" d="M22.28,7.72c0-.89,0-1.78,0-2.67A1.25,1.25,0,0,1,23,3.74H43a3.27,3.27,0,0,1,.28,1.47c.19,1.87.3,3.74.34,5.62a.83.83,0,0,1-.15.63,1.26,1.26,0,0,1-.69.11H26.25a2.07,2.07,0,0,1-.61-.05c-.26-.12-.23-.36-.24-.57,0-.52,0-1,0-1.56a1.46,1.46,0,0,0-2.61-1,3.47,3.47,0,0,1-.3.37c-.07.06-.15.12-.23,0A1.38,1.38,0,0,1,22.28,7.72Z"/><path class="cls-2" d="M43.44,11.41c0-1.6-.13-3.19-.21-4.78,0-1-.18-1.93-.27-2.89H45.9c.23.23.52.4.58.76.07,1,0,2.05,0,3.08s0,2.33,0,3.5c0,.29-.09.46-.38.47-.81,0-1.61,0-2.42,0A.38.38,0,0,1,43.44,11.41Z"/><path class="cls-3" d="M43.44,11.41c.89,0,1.79,0,2.69,0,.31,0,.37-.12.36-.39q0-3.27,0-6.54c.13.14.09.3.09.45,0,2,0,4.08,0,6.11-.21,8.24,0,16.47-.07,24.71,0,.75.08,1.5.08,2.26,0,.17,0,.35-.08.5l-.07-.06a.36.36,0,0,1-.07-.17,10.59,10.59,0,0,1,0-1.13c0-.54-.06-.59-.6-.59H39.63c-.25,0-.5,0-.75,0-1.23,0-2.46,0-3.69,0q-4.83,0-9.65,0c-.86,0-1.72,0-2.58,0a1.09,1.09,0,0,1-.68-.13.85.85,0,0,1-.12-.54c0-2.92,0-5.84,0-8.76a1.41,1.41,0,0,1,.07-.5c.3-.22.37.09.48.23a1.52,1.52,0,0,0,2.07.35,1.56,1.56,0,0,0,.55-.69c.07-.17.1-.37.32-.44,1-.08,1.94-.05,2.91,0,1.4,0,2.79,0,4.19,0,.47-.17.7-.42.69-.76s-.32-.61-.95-.73c-1.86-.06-3.71,0-5.57,0a4.52,4.52,0,0,0-1,0,.47.47,0,0,1-.33,0,1.13,1.13,0,0,1,0-1.11,3.35,3.35,0,0,1,1.3-.1c.23,0,.47,0,.7,0a.75.75,0,0,0,.69-.67.71.71,0,0,0-.63-.71,10.14,10.14,0,0,0-1.46,0c-.23,0-.48,0-.66-.18a7.9,7.9,0,0,1,0-2.7c.27-.23.59-.11.89-.15.75,0,1.49,0,2.24,0H32.4c.64,0,1-.28,1-.7s-.37-.71-1-.71c-1.29,0-2.59,0-3.88,0h-2c-.31-.05-.64.06-.95-.09a1.09,1.09,0,0,1,0-1.13,2.45,2.45,0,0,1,1.11-.1c.3,0,.6,0,.89,0a.71.71,0,0,0,.67-.62.7.7,0,0,0-.51-.71,3.6,3.6,0,0,0-1-.09c-.37,0-.76.09-1.11-.13a.89.89,0,0,1-.17-.67c0-.58,0-1.16,0-1.75,0-.34-.13-.48-.47-.47h-2a.88.88,0,0,1-.63-.15c0-.19.18-.21.32-.22q1.34-.06,2.67,0a.51.51,0,0,1,.25.11l2.32,0H43.44Z"/><path class="cls-4" d="M46.49,38.53c0,1.67-.06,3.34,0,5a3,3,0,0,1-3,2.92H38.78a.73.73,0,0,1-.53.14c-1,0-2,0-3,0-1.8,0-3.59,0-5.39,0q-4.63,0-9.26,0a2.16,2.16,0,0,1-.8-.07c-.25-.27.07-.27.18-.32a3.71,3.71,0,0,0,1-.55,3,3,0,0,0,1.12-2.45c0-1.39,0-2.77,0-4.16,0-.25-.05-.51.17-.71a2.85,2.85,0,0,1,1.16-.09,15.55,15.55,0,0,1,1.93,0,3.55,3.55,0,0,0,.8,0H34.5a4.21,4.21,0,0,0,.79-.06,13.4,13.4,0,0,1,3,.07,3,3,0,0,0,.52,0h7a1,1,0,0,1,.69.12Z"/><path class="cls-5" d="M38.6,49.88a3.16,3.16,0,0,1-2.84,2.37c-7.77,0-15.54,0-23.3,0a3.14,3.14,0,0,1-3-3,1.51,1.51,0,0,1,0-.52V32.44c0-.1,0-.25.16-.15a.73.73,0,0,1,.2.26,1.59,1.59,0,0,0,2.77,0,1.31,1.31,0,0,1,.19-.27c.14-.12.19,0,.24.1a3.47,3.47,0,0,1,.05.85V47.8a1.24,1.24,0,0,0,.11.78.68.68,0,0,0,.53.13h2.84a1.14,1.14,0,0,1,.83.26,3.18,3.18,0,0,0,2.23.77q9.06,0,18.12,0C38,49.74,38.34,49.66,38.6,49.88Z"/><path class="cls-6" d="M9.51,10.65a3.17,3.17,0,0,1,2.87-2.92c1.67,0,3.34,0,5,0a1.64,1.64,0,0,1,1.35,2A1.74,1.74,0,0,1,17,11.27c-1.11,0-2.23,0-3.35,0-.18,0-.38,0-.51.15a1.44,1.44,0,0,0-.08.65v3.63a1.48,1.48,0,0,1-.08.69c-.22.17-.32,0-.4-.15a1.61,1.61,0,0,0-2.74,0,.4.4,0,0,1-.3.2c-.11-.06-.08-.17-.08-.26v-5.3A.37.37,0,0,1,9.51,10.65Z"/><path class="cls-7" d="M9.51,10.65c0,1.89,0,3.78,0,5.67l.06.07a1.91,1.91,0,0,1,1.26-1,1.69,1.69,0,0,1,1.84.79c.06.11.11.23.24.28a1.11,1.11,0,0,1,.23.84q0,3.66,0,7.31a3,3,0,0,1-.14.89,2,2,0,0,1-1.94,1.24,1.94,1.94,0,0,1-1.44-.85v5.68c0,.24.06.5-.13.72V48.71c0,.17,0,.35,0,.52a1,1,0,0,1-.07-.55V11.3A1,1,0,0,1,9.51,10.65Z"/><path class="cls-8" d="M38.6,49.88H19.42A3,3,0,0,1,17.24,49a.71.71,0,0,0-.55-.2q-1.59,0-3.18,0c-.16,0-.35.06-.49-.08.17-.18.4-.15.62-.15,1.09,0,2.18,0,3.26,0,3.28,0,6.57,0,9.85,0h7.71c.64,0,.65,0,.68-.67a2.8,2.8,0,0,1,.14-1.43h3.5a22.8,22.8,0,0,1-.08,3.2A.3.3,0,0,1,38.6,49.88Z"/><path class="cls-5" d="M13,11.23c.14-.16.32-.09.49-.09,1.13,0,2.27,0,3.4,0A1.54,1.54,0,0,0,18.56,10a1.58,1.58,0,0,0-.74-2c-.14-.09-.29-.17-.44-.25l4.9,0c0,.38,0,.76,0,1.14.2.46,0,.94.05,1.42a1.37,1.37,0,0,1-.14,1,1.26,1.26,0,0,1-.69.11H13.74A1,1,0,0,1,13,11.23Z"/><path class="cls-3" d="M34.34,9.26H29.65c-.76,0-1.09-.34-1.09-1.09,0-.52,0-1,0-1.56a.92.92,0,0,1,1-1h9.7a.9.9,0,0,1,1,1c0,.55,0,1.1,0,1.66a.9.9,0,0,1-1,1Z"/><path class="cls-9" d="M22.21,11.23a18.71,18.71,0,0,1,.09-2.37,2.25,2.25,0,0,1,1.24-1.09,1.6,1.6,0,0,1,2,1.46c0,.72,0,1.45,0,2.17l-2.79,0c-.15,0-.32-.08-.43.1a.88.88,0,0,1,.15.63V25.46a.88.88,0,0,1-.14.63c-.21,0-.21-.15-.24-.28a2.16,2.16,0,0,1,0-.51V12A1.1,1.1,0,0,1,22.21,11.23Z"/><path class="cls-10" d="M22.21,11.23c0,.24,0,.47,0,.71v13.6c0,.17,0,.34,0,.51a.35.35,0,0,1,0,.53l0,.46c-.17.18-.4.15-.62.15a16.16,16.16,0,0,0-1.84.06,16.36,16.36,0,0,1-2,0c-1.2,0-1.35.16-1.35,1.38V42.38c0,.58,0,1.16,0,1.74-.07,1.07,0,2.13,0,3.2a2.2,2.2,0,0,0,.29.93.62.62,0,0,1,.13.49H13c-.16-.16-.08-.36-.08-.54q0-8,0-16a.86.86,0,0,1-.15-.62V26.26a1.44,1.44,0,0,1,.16-.73c.11-3,.12-6.06,0-9.09,0-1.57,0-3.14,0-4.71,0-.17-.06-.35.07-.5Z"/><path class="cls-11" d="M19.84,27.14a9.21,9.21,0,0,1,1.74-.06l.7,0c0,2.76,0,5.53,0,8.3v1.08a2.92,2.92,0,0,1,0,2c0,1.47-.05,2.93,0,4.4a3.26,3.26,0,0,1-2.56,3.61c-.15.19-.37.15-.57.14a3.15,3.15,0,0,1-2.47-1.37.47.47,0,0,1-.12-.48,18,18,0,0,0,2.94-5.58,19.5,19.5,0,0,0,1-6.09,19.42,19.42,0,0,0-.66-5.2C19.83,27.64,19.69,27.39,19.84,27.14Z"/><path class="cls-12" d="M22.31,26.58c0-.18,0-.35,0-.53,0-.61,0-1.23,0-1.84V12.09c0-.19,0-.38,0-.57.93,0,1.86,0,2.79,0,.32,0,.44.08.43.42,0,.69,0,1.39,0,2.08a1,1,0,0,0,.1.55c0,.14-.12.17-.2.23-.53.43-.55.78-.07,1.25a.36.36,0,0,1,.16.22v1a.44.44,0,0,1-.1.16c-.57.57-.57.77,0,1.36a.33.33,0,0,1,.11.2v2.75c0,.11-.07.16-.14.22-.5.45-.51.76,0,1.25.06.07.14.12.17.22v1a.21.21,0,0,1-.05.13c-.62.64-.62.83.05,1.44a.15.15,0,0,1,0,.13,1.58,1.58,0,0,1-1.25,1.42,1.68,1.68,0,0,1-1.77-.78C22.46,26.72,22.42,26.62,22.31,26.58Z"/><path class="cls-9" d="M35.29,38.43a.82.82,0,0,1-.51.07H25.93a.9.9,0,0,1-.51-.07,1.11,1.11,0,0,1-.58-1.16.89.89,0,0,1,.68-.84h9.67a1,1,0,0,1,.75,1A1,1,0,0,1,35.29,38.43Z"/><path class="cls-13" d="M38.89,36.43l7.26,0c.24,0,.35.06.34.31,0,.57,0,1.13,0,1.7a.75.75,0,0,1-.42,0H38.57c-.55,0-.61-.06-.4-.56A3.88,3.88,0,0,1,38.89,36.43Z"/><path class="cls-14" d="M28.57,17.31l4.07,0a.87.87,0,0,1,.94.85.88.88,0,0,1-.95.85c-1.32,0-2.64,0-4,0-.05-.12,0-.2.1-.29.35-.52.34-.68-.07-1.15C28.63,17.48,28.54,17.42,28.57,17.31Z"/><path class="cls-14" d="M32.93,31.68a.83.83,0,0,1,.64.9.81.81,0,0,1-.84.73c-1.29.09-2.58,0-3.87,0-.21,0-.28-.11-.17-.26a1,1,0,0,0,.09-1.18c-.1-.17,0-.27.18-.26C30.28,31.67,31.6,31.61,32.93,31.68Z"/><path class="cls-14" d="M32.64,24.48a.88.88,0,0,1,.93.73.86.86,0,0,1-.64.9c-1.36.08-2.71,0-4.06,0-.14,0-.3,0-.17-.21.39-.49.29-1-.16-1.48C30,24.45,31.31,24.41,32.64,24.48Z"/><path class="cls-1" d="M38.89,36.43c-.21.53-.38,1.07-.62,1.58s-.07.41.28.41c2.64,0,5.27,0,7.91,0a.21.21,0,0,1,0,.08c-3.73,0-7.45,0-11.17-.07a.45.45,0,0,1,.06-.12c.7-.79.66-1.23-.16-1.88Z"/><path class="cls-15" d="M42,32.91a.46.46,0,0,1-.32-.23,5.68,5.68,0,0,0-1.3-1.29c-.23-.17-.27-.33,0-.51a5.6,5.6,0,0,0,1.33-1.33c.16-.23.33-.27.51,0a5.9,5.9,0,0,0,1.37,1.36c.2.14.23.29,0,.45a6.69,6.69,0,0,0-1.44,1.42A.7.7,0,0,1,42,32.91Z"/><path class="cls-2" d="M42,18.53c-.14,0-.2-.14-.27-.24a5.74,5.74,0,0,0-1.24-1.22c-.28-.18-.34-.35,0-.56a4.76,4.76,0,0,0,1.27-1.26c.21-.31.39-.27.58,0a4.79,4.79,0,0,0,1.23,1.23c.33.22.33.4,0,.62a4.68,4.68,0,0,0-1.2,1.19C42.21,18.4,42.15,18.55,42,18.53Z"/><path class="cls-2" d="M42,25.72c-.13,0-.18-.12-.25-.21a5,5,0,0,0-1.31-1.29c-.24-.17-.28-.33,0-.51a5.6,5.6,0,0,0,1.34-1.32c.17-.24.34-.25.51,0a5.29,5.29,0,0,0,1.35,1.32c.19.14.27.28,0,.44a6.51,6.51,0,0,0-1.44,1.43A.26.26,0,0,1,42,25.72Z"/><path class="cls-11" d="M32.64,24.48h-4a1.1,1.1,0,0,1,.46.79,1,1,0,0,1-.48.84h4.28a.34.34,0,0,1-.27.09l-7.12,0a.64.64,0,0,0,0-.07.59.59,0,0,1,.62-.08c-.44-.43-.46-.74-.07-1.39-.08-.08-.22-.05-.27-.16a.5.5,0,0,1,.36-.07h6.12A.5.5,0,0,1,32.64,24.48Z"/><path class="cls-11" d="M32.93,31.68h-4.2a1,1,0,0,1-.12,1.63h4.12a.44.44,0,0,1-.35.08H26.16a.56.56,0,0,1-.36-.07c.05-.12.19-.09.27-.17-.39-.65-.37-1,.08-1.39a.62.62,0,0,1-.63-.07c.11-.12.26-.09.4-.09h6.6C32.66,31.6,32.81,31.56,32.93,31.68Z"/><path class="cls-1" d="M25.52,36.43c-.78.63-.8,1.18-.07,1.92,0,0,0,0,0,.08H22.3v-2Z"/><path class="cls-14" d="M25.53,23.45c-.86-.5-.85-1.2,0-1.69h1.85c.6,0,1,.35,1,.85a.9.9,0,0,1-1,.85Z"/><path class="cls-14" d="M26.59,30.63c-.28,0-.57,0-.85,0a.89.89,0,0,1-.85-.91.86.86,0,0,1,.9-.78c.56,0,1.11,0,1.66,0a.87.87,0,0,1,.92.82.88.88,0,0,1-.88.87c-.3,0-.6,0-.9,0Z"/><path class="cls-14" d="M25.52,16.26a.88.88,0,0,1-.62-.84c0-.47.33-.7.73-.86.61,0,1.23,0,1.84,0a.85.85,0,0,1,.87.67.82.82,0,0,1-.34.87.79.79,0,0,1-.54.14Z"/><path class="cls-11" d="M28.57,17.31c.73.56.74.87.09,1.67H26.37a.87.87,0,0,1-.57-.92.8.8,0,0,1,.66-.75Z"/><path class="cls-16" d="M26.46,17.31c-.72.56-.74.86-.09,1.67l-.84,0c-.86-.6-.86-1.22,0-1.72Z"/><path class="cls-14" d="M25.52,31.69h.81c-.22.25-.43.44-.43.76a1.21,1.21,0,0,0,.47.81l-.57.06c-.53-.06-.85-.29-.89-.72A.8.8,0,0,1,25.52,31.69Z"/><path class="cls-14" d="M25.8,24.48l.55,0c-.19.26-.44.45-.45.77a1,1,0,0,0,.46.82h-.84a.8.8,0,0,1-.62-.79.86.86,0,0,1,.62-.84Z"/><path class="cls-17" d="M16.62,44.77a3,3,0,0,0,3.13,1.68l11.36,0,4.17,0V48.1c0,.65,0,.65-.63.65H16.91a3.22,3.22,0,0,1-.58-2.19c.05-.78-.06-1.57.06-2.36A.52.52,0,0,1,16.62,44.77Z"/><path class="cls-14" d="M25.52,43.35a.8.8,0,0,1-.61-.87.78.78,0,0,1,.8-.76c1.37-.08,2.74,0,4.11,0,.36,0,.72,0,1.06,0a.21.21,0,0,1,0,.28A.9.9,0,0,0,30.76,43c.11.19.15.36-.18.35-1.66,0-3.31,0-5,0Z"/><path class="cls-11" d="M25.52,43.35h5.26c-.47-.73-.46-1,.1-1.63H25.71a.65.65,0,0,1,.45-.07H36.69a.58.58,0,0,1,.41.07c-.16.18-.38.14-.58.15-.59,0-1.19,0-1.85,0a1,1,0,0,1,0,1.33h1.92c.22,0,.45,0,.63.14-.15.14-.33.09-.5.09H26C25.85,43.43,25.67,43.49,25.52,43.35Z"/><path class="cls-15" d="M42,40.71c.16,0,.22.09.29.18a5.56,5.56,0,0,0,1.33,1.32c.28.19.25.37,0,.54a4.56,4.56,0,0,0-1.29,1.3c-.2.29-.37.23-.55,0a5.69,5.69,0,0,0-1.3-1.29c-.17-.13-.33-.28-.06-.48a6,6,0,0,0,1.41-1.39A.7.7,0,0,1,42,40.71Z"/><path class="cls-14" d="M37.19,43.35H34.41a1.6,1.6,0,0,0,.4-.8c0-.33-.24-.52-.48-.83H37.1a.79.79,0,0,1,.73.78A.77.77,0,0,1,37.19,43.35Z"/><path class="cls-6" d="M12.93,25.53v6.73a2.28,2.28,0,0,1-.78,1,1.78,1.78,0,0,1-2.62-.95V25.61c.21,0,.23.2.31.3a1.75,1.75,0,0,0,2.86-.1C12.76,25.71,12.8,25.58,12.93,25.53Z"/><path class="cls-18" d="M16.62,44.77l-.23-.58c0-.31-.07-.63-.07-.94V28.38c0-.94.31-1.25,1.25-1.25h2.27a24.76,24.76,0,0,1,.78,4.76,19.78,19.78,0,0,1-2.9,11.45c-.25.41-.51.82-.8,1.21C16.84,44.67,16.77,44.77,16.62,44.77Z"/></svg>