<svg width="31" height="19" viewBox="0 0 31 19" fill="none" xmlns="http://www.w3.org/2000/svg">
<path d="M24.6857 12.2488C27.7677 12.0708 30.3152 12.9785 30.3954 14.2776C30.4756 15.5768 28.0349 16.7692 24.9618 16.9471C21.8887 17.1251 18.1564 15.1675 18.1564 15.1675C18.1564 15.1675 21.6304 12.4268 24.6857 12.2488Z" fill="#EC1164"/>
<path d="M21.4789 7.1055C23.8572 5.14786 26.4582 4.3826 27.2777 5.37922C28.0972 6.37583 26.8502 8.77839 24.4719 10.7182C22.0935 12.6581 17.9159 13.2721 17.9159 13.2721C17.9159 13.2721 19.1006 9.06314 21.4789 7.1055Z" fill="#EC1164"/>
<path d="M15.8494 4.84556C16.6154 1.86461 18.2544 -0.288766 19.5104 0.0315745C20.7663 0.351916 21.1761 3.0303 20.4011 6.01125C19.6262 8.9922 16.6154 11.9376 16.6154 11.9376C16.6154 11.9376 15.0833 7.82651 15.8494 4.84556Z" fill="#EC1164"/>
<path d="M9.97039 6.34018C8.82132 3.47491 8.87477 0.769763 10.0862 0.289253C11.2976 -0.191259 13.1949 1.73971 14.3351 4.59608C15.4753 7.45246 14.7805 11.608 14.7805 11.608C14.7805 11.608 11.1106 9.19655 9.97039 6.34018Z" fill="#EC1164"/>
<path d="M6.09562 11.0121C3.48571 9.37476 1.9358 7.15909 2.62168 6.0557C3.30756 4.9523 5.98873 5.38829 8.59864 7.02559C11.2085 8.66289 13.097 12.4269 13.097 12.4269C13.097 12.4269 8.70553 12.6405 6.09562 11.0121Z" fill="#EC1164"/>
<path d="M5.73933 17.0631C2.66623 17.2767 0.100854 16.4046 0.002871 15.1144C-0.0951121 13.8241 2.32774 12.5872 5.40084 12.3737C8.47395 12.1601 12.224 14.0822 12.224 14.0822C12.224 14.0822 8.80353 16.8407 5.73933 17.0631Z" fill="#EC1164"/>
<path d="M18.9848 14.5893C18.9848 12.4957 17.286 10.7986 15.1903 10.7986C13.0945 10.7986 11.3956 12.4957 11.3956 14.5893C11.3956 16.6828 13.0945 18.38 15.1903 18.38C17.286 18.38 18.9848 16.6828 18.9848 14.5893Z" fill="#FEF100"/>
</svg>
