<svg id="Layer_1" data-name="Layer 1" xmlns="http://www.w3.org/2000/svg" viewBox="0 0 56 56"><defs><style>.cls-1{fill:#ffda2e;}.cls-2{fill:#ed695e;}.cls-3{fill:#fbb70f;}.cls-4{fill:#db8c36;}.cls-5{fill:#fec708;}.cls-6{fill:#ea5447;}.cls-7{fill:#47585a;}.cls-8{fill:#8e9da8;}.cls-9{fill:#7a8c98;}.cls-10{fill:#f4a511;}.cls-11{fill:#c9772a;}.cls-12{fill:#b06328;}.cls-13{fill:#3b494b;}.cls-14{fill:#fec70f;}.cls-15{fill:#e6f4fc;}.cls-16{fill:#d1ebfa;}.cls-17{fill:#eff4f6;}.cls-18{fill:#eff4f7;}.cls-19{fill:#e3e3e2;}.cls-20{fill:#3a484b;}</style></defs><path class="cls-1" d="M13.21,38.86v-.12a1.35,1.35,0,0,1,0-.4V26a2,2,0,0,1,0-.35l0-.1c0-.91,0-1.82,0-2.73A1.66,1.66,0,0,1,15.11,21h19.1c1.12,0,2.25,0,3.38,0a.92.92,0,0,1,.54.07c-.3.27-.67.13-1.07.18A2,2,0,0,1,37.77,23q0,8,0,16a1.23,1.23,0,0,1-.16.88,1.23,1.23,0,0,1-.73.13H13.92a1.69,1.69,0,0,1-.55,0,.4.4,0,0,1-.18-.1A.94.94,0,0,1,13.21,38.86Z"/><path class="cls-2" d="M53,42.15A7.1,7.1,0,0,1,52.9,44a1.6,1.6,0,0,1-.49.12c-1.18,0-2.35,0-3.53,0a.58.58,0,0,1-.39-.34,4.69,4.69,0,0,0-.68-.91,3.12,3.12,0,0,0-4.82.7c-.13.21-.2.47-.48.55a5.76,5.76,0,0,1-1.31,0,.57.57,0,0,1-.61-.6c0-.22,0-.44,0-.66V26.22c0-.17,0-.34,0-.51,0-.42-.14-.64-.58-.61a.7.7,0,0,1-.4-.08c-.08-.07-.15-.14,0-.18l5,0a2.8,2.8,0,0,1,2.18,1q2.61,2.9,5.26,5.75A3.11,3.11,0,0,1,53,33.93c-.06,1.91,0,3.81,0,5.72a1.88,1.88,0,0,1-.94.11c-.88.07-1,.22-1,1.11a2.32,2.32,0,0,0,0,.7c.06.22.15.42.43.42C52,42.05,52.49,41.86,53,42.15Z"/><path class="cls-3" d="M13.29,39.83H37.6l.07.08a1.18,1.18,0,0,1,.09.59c0,1.31,0,2.61,0,3.92a.88.88,0,0,1-.16.67l-6.28,0c-.21,0-.2-.2-.21-.34a3,3,0,0,0-1.07-2A3.11,3.11,0,0,0,25,44.54a.94.94,0,0,1-.21.55H23a.34.34,0,0,1-.14-.26,3.31,3.31,0,0,0-1-2,3.11,3.11,0,0,0-5.16,1.61c0,.22,0,.49-.22.66-.53,0-1.07,0-1.61,0a1.57,1.57,0,0,1-1.53-1.49,4.93,4.93,0,0,0,0-1.15A7.39,7.39,0,0,1,13.29,39.83Z"/><path class="cls-4" d="M5.05,37.7q0-5.61,0-11.22a.82.82,0,0,1,.86-.92c1.43,0,2.86,0,4.29,0a.88.88,0,0,1,.13.63v2.17c0,.21-.05.47.19.58s.44-.09.62-.24c.39-.32.77-.65,1.18-.94s.75-.18,1,.35v9a1.46,1.46,0,0,1,0,.55.93.93,0,0,1-.67.14H5.71A.86.86,0,0,1,5.05,37.7Z"/><path class="cls-2" d="M11.21,12.3c0-.48,0-1,0-1.46s.24-.77.77-.78h2.42c4.67,0,9.33,0,14,0,.41,0,.58-.09.54-.53s0-.84,0-1.26a.59.59,0,0,1,.31-.59.57.57,0,0,1,.65.14l4.59,3.56a.59.59,0,0,1-.27.35q-2.12,1.66-4.26,3.3a.65.65,0,0,1-.88.05,1.15,1.15,0,0,1-.06,1,3.22,3.22,0,0,1-.09-1.27c0-.29,0-.57,0-.85a.86.86,0,0,1-.16-.58c0-.37-.18-.51-.53-.49H12.38C11.9,12.86,11.41,12.89,11.21,12.3Z"/><path class="cls-5" d="M39.63,24.84l-.06.1a1.1,1.1,0,0,1,.12.64v13.6a1.1,1.1,0,0,1-.12.64,2.76,2.76,0,0,1-2,0v0q0-8.6,0-17.19A1.9,1.9,0,0,0,36.7,21h1.43a1.61,1.61,0,0,1,1.48,1.7C39.62,23.41,39.62,24.13,39.63,24.84Z"/><path class="cls-6" d="M39.51,39.81q0-7,0-14c0-.31,0-.61,0-.91,1.17,0,1.17,0,1.17,1.2V43.29c0,.67,0,.68.67.68h1.22a1.53,1.53,0,0,1-.2,1.16l-2.9-.05a.75.75,0,0,1-.16-.52c0-1.42,0-2.85,0-4.27A.75.75,0,0,1,39.51,39.81Z"/><path class="cls-7" d="M42.43,45.13a4.09,4.09,0,0,1,.2-1.16,3.26,3.26,0,0,1,5.11-1.39.93.93,0,0,1,.16.18,3.32,3.32,0,0,1-4.66,4.45A3.13,3.13,0,0,1,42.43,45.13Z"/><path class="cls-7" d="M24.75,45.09a3.27,3.27,0,0,1,3.36-3.23,3.07,3.07,0,0,1,2,.78,3.2,3.2,0,0,1-.19,3.86,3.42,3.42,0,0,1-3.89,1,.85.85,0,0,0-.28-.1A3.41,3.41,0,0,1,24.75,45.09Z"/><path class="cls-7" d="M16.43,45.1a3.25,3.25,0,0,1,3.4-3.24,2.88,2.88,0,0,1,2.06.9,3.22,3.22,0,0,1,.28,2.66,3.27,3.27,0,0,1-4.92,1.79A3.12,3.12,0,0,1,16.43,45.1Z"/><path class="cls-6" d="M11.21,12.3a1.31,1.31,0,0,0,1.13.41H28.22c.68,0,.68,0,.68.68v.56H12.06c-.67,0-.86-.2-.86-.88C11.2,12.81,11.21,12.56,11.21,12.3Z"/><path class="cls-8" d="M13.21,38.86v1a4.24,4.24,0,0,1,0,.94c0,.24-.15.36-.32.48-2.59,1.85-5.18,3.69-7.76,5.55a2,2,0,0,1-1.41.44A.88.88,0,0,1,3,46.81a1.25,1.25,0,0,1,.55-1.08C6.78,43.43,10,41.15,13.21,38.86Z"/><path class="cls-9" d="M3,46.81a1.7,1.7,0,0,0,2.09-.13c2.61-1.89,5.23-3.75,7.86-5.61a.52.52,0,0,0,.25-.51c0-.25,0-.5,0-.75l.07,0c0,.87.06,1.74,0,2.61C10.65,44.28,8.06,46.13,5.47,48a1.47,1.47,0,0,1-2.09-.1A1.22,1.22,0,0,1,3,46.81Z"/><path class="cls-10" d="M39.51,39.81c0,1.76,0,3.51,0,5.27H37.6c0-1.75,0-3.5,0-5.24Z"/><path class="cls-11" d="M5.05,37.7h8.16a2.81,2.81,0,0,1,0,1.08s0,0,0,0l-7.12,0a1.1,1.1,0,0,1-.59-.09A.88.88,0,0,1,5.05,37.7Z"/><path class="cls-12" d="M13.22,28a.64.64,0,0,0-1,.06A13.43,13.43,0,0,1,11,29a.55.55,0,0,1-.6.16c-.23-.11-.25-.33-.25-.56,0-1,0-2,0-3l3,0v0A13.74,13.74,0,0,1,13.22,28Z"/><path class="cls-6" d="M29,16.06V15c.74.42,1.09-.23,1.51-.54,1.34-1,2.64-2,4-3.06.65.43.68.72.08,1.18-1.54,1.2-3.08,2.4-4.63,3.58C29.59,16.4,29.26,16.52,29,16.06Z"/><path class="cls-13" d="M43.24,47.21a6.06,6.06,0,0,0,1.69.41,3.25,3.25,0,0,0,3-4.5c-.05-.11-.19-.22-.06-.36A3.32,3.32,0,0,1,48.75,44,.92.92,0,0,1,49,45.1a3.16,3.16,0,0,1-2.21,3.06,3.11,3.11,0,0,1-3.42-.82Z"/><path class="cls-13" d="M25.76,47.42c.18-.19.35,0,.5,0A3.26,3.26,0,0,0,30.48,45a4.15,4.15,0,0,0-.36-2.4,3,3,0,0,1,1.12,2.07,2.33,2.33,0,0,0,.08.38,3.59,3.59,0,0,1-1.26,2.55A3.28,3.28,0,0,1,25.76,47.42Z"/><path class="cls-13" d="M17.25,47.21a8.53,8.53,0,0,0,1.69.42,3.25,3.25,0,0,0,3-4.51c-.05-.11-.18-.22-.06-.36A3.06,3.06,0,0,1,23,45.09a3.15,3.15,0,0,1-2.18,3.06,3.09,3.09,0,0,1-3.44-.82A.32.32,0,0,1,17.25,47.21Z"/><path class="cls-6" d="M49,45.1a4.32,4.32,0,0,0-.2-1.13c1.34,0,2.69.08,4-.07,0,0,.08.06.12.09a1.41,1.41,0,0,1-1.38,1.09C50.66,45.11,49.81,45.1,49,45.1Z"/><path class="cls-1" d="M53,42.15l-1.6,0a2.6,2.6,0,0,1-.07-1.76.72.72,0,0,1,.75-.48A1.19,1.19,0,0,1,53,40Z"/><path class="cls-14" d="M53,40c-.32,0-.64,0-.95,0s-.68.22-.66.7,0,.93,0,1.4c-.92-.4-.4-1.2-.48-1.81-.06-.43.29-.61.72-.65a12.34,12.34,0,0,1,1.36,0Z"/><path class="cls-3" d="M13.22,28c0-.8,0-1.6,0-2.4.15.12.09.28.09.42V38.36c0,.14,0,.3-.08.42l0-1.08C13.21,34.46,13.22,31.22,13.22,28Z"/><path class="cls-15" d="M50.15,34.56c-2.72,0-5.44,0-8.17,0-.26,0-.35-.08-.34-.35,0-2.18,0-4.37,0-6.55a.66.66,0,0,1,.52-.13,9.35,9.35,0,0,0,1.06,0,1.85,1.85,0,0,1,1.73.83c.8.95,1.67,1.85,2.51,2.77S49.15,33,50,33.89C50.19,34.08,50.35,34.28,50.15,34.56Z"/><path class="cls-16" d="M50.15,34.56A.67.67,0,0,0,50,34c-.84-.89-1.68-1.79-2.5-2.7s-1.81-2-2.7-3a1.61,1.61,0,0,0-1.43-.69,13.92,13.92,0,0,1-1.71,0c-.09-1-.09-1,.88-1,.69,0,1.38,0,2.07,0a1,1,0,0,1,.77.31L51,33.11c.37.4.14.9.17,1.35,0,.13-.13.13-.23.13Z"/><path class="cls-17" d="M42.89,37.71h-.71a.59.59,0,0,1-.6-.61.56.56,0,0,1,.58-.63q.71,0,1.41,0a.56.56,0,0,1,.58.63.59.59,0,0,1-.61.61Z"/><path class="cls-18" d="M11.2,34.76c0,.34,0,.67,0,1s-.11.52-.5.51c-.88,0-1.77,0-2.66,0A1.67,1.67,0,0,1,8,35a.4.4,0,0,1,.38-.35,12,12,0,0,1,2.75,0C11.14,34.68,11.17,34.73,11.2,34.76Z"/><path class="cls-19" d="M11.2,34.76c-.87,0-1.74,0-2.6,0-.43,0-.58.15-.55.56s0,.63,0,.95c-.38.08-.53-.08-.51-.46s0-.77,0-1.16A.4.4,0,0,1,8,34.17c.92,0,1.85,0,2.77,0C11.13,34.18,11.33,34.37,11.2,34.76Z"/><path class="cls-20" d="M45.67,46.29a1.2,1.2,0,0,1-1.29-1.23,1.32,1.32,0,0,1,1.36-1.2,1.15,1.15,0,0,1,1.17,1.23A1.13,1.13,0,0,1,45.67,46.29Z"/><path class="cls-20" d="M28,46.29a1.07,1.07,0,0,1-1.2-1.16A1.19,1.19,0,0,1,28,43.85a1.25,1.25,0,0,1,1.27,1.22A1.2,1.2,0,0,1,28,46.29Z"/><path class="cls-20" d="M19.65,46.29a1.16,1.16,0,0,1-1.26-1.21,1.29,1.29,0,0,1,1.33-1.23,1.19,1.19,0,0,1,1.19,1.32A1.09,1.09,0,0,1,19.65,46.29Z"/></svg>