<svg width="25" height="25" viewBox="0 0 25 25" fill="none" xmlns="http://www.w3.org/2000/svg">
<path d="M8.8 24.425C10 24.7875 11.2125 25 12.5 25C15.8152 25 18.9946 23.683 21.3388 21.3388C23.683 18.9946 25 15.8152 25 12.5C25 10.8585 24.6767 9.23303 24.0485 7.71646C23.4203 6.19989 22.4996 4.8219 21.3388 3.66117C20.1781 2.50043 18.8001 1.57969 17.2835 0.951506C15.767 0.323322 14.1415 0 12.5 0C10.8585 0 9.23303 0.323322 7.71646 0.951506C6.19989 1.57969 4.8219 2.50043 3.66117 3.66117C1.31696 6.00537 0 9.18479 0 12.5C0 17.8125 3.3375 22.375 8.05 24.175C7.9375 23.2 7.825 21.5875 8.05 20.475L9.4875 14.3C9.4875 14.3 9.125 13.575 9.125 12.425C9.125 10.7 10.2 9.4125 11.425 9.4125C12.5 9.4125 13 10.2 13 11.2125C13 12.2875 12.2875 13.825 11.925 15.3C11.7125 16.525 12.575 17.6 13.825 17.6C16.05 17.6 17.775 15.225 17.775 11.875C17.775 8.875 15.625 6.825 12.5375 6.825C9.0125 6.825 6.9375 9.45 6.9375 12.2125C6.9375 13.2875 7.2875 14.375 7.8625 15.0875C7.975 15.1625 7.975 15.2625 7.9375 15.45L7.575 16.8125C7.575 17.025 7.4375 17.1 7.225 16.95C5.625 16.25 4.7 13.975 4.7 12.1375C4.7 8.1875 7.5 4.6 12.9 4.6C17.2 4.6 20.55 7.6875 20.55 11.7875C20.55 16.0875 17.8875 19.5375 14.075 19.5375C12.8625 19.5375 11.675 18.8875 11.25 18.125L10.4125 21.0875C10.125 22.1625 9.3375 23.6 8.8 24.4625V24.425Z" fill="white"/>
</svg>
