<svg width="26" height="29" viewBox="0 0 26 29" fill="none" xmlns="http://www.w3.org/2000/svg">
<path d="M11.7658 13.7541L0.107544 26.4072C0.108639 26.4094 0.108639 26.4128 0.109734 26.415C0.467792 27.7889 1.69417 28.8 3.1505 28.8C3.73303 28.8 4.27942 28.6388 4.74807 28.3566L4.7853 28.3342L17.9076 20.5912L11.7658 13.7541Z" fill="#EA4335"/>
<path d="M23.5598 11.5994L23.5488 11.5916L17.8834 8.23348L11.5007 14.0416L17.9064 20.5898L23.5411 17.2653C24.5288 16.7189 25.2 15.654 25.2 14.4268C25.2 13.2063 24.5387 12.147 23.5598 11.5994Z" fill="#FBBC04"/>
<path d="M0.107308 2.39197C0.0372293 2.65623 0 2.93393 0 3.22058V25.5796C0 25.8663 0.0372293 26.144 0.108403 26.4071L12.1663 14.0776L0.107308 2.39197Z" fill="#4285F4"/>
<path d="M11.8519 14.4L17.8852 8.2313L4.7783 0.460281C4.30199 0.168028 3.74574 6.77109e-05 3.15116 6.77109e-05C1.69484 6.77109e-05 0.46627 1.01343 0.108211 2.38848C0.108211 2.3896 0.107117 2.39072 0.107117 2.39184L11.8519 14.4Z" fill="#34A853"/>
</svg>
