<svg id="Layer_1" data-name="Layer 1" xmlns="http://www.w3.org/2000/svg" viewBox="0 0 56 56"><defs><style>.cls-1{fill:#6bc5d7;}.cls-2{fill:#fab437;}.cls-3{fill:#3c8dcc;}.cls-4{fill:#fac9a4;}.cls-5{fill:#f8ab25;}.cls-6{fill:#bae0e6;}.cls-7{fill:#4fb9c7;}.cls-8{fill:#90d1df;}.cls-9{fill:#fcc262;}.cls-10{fill:#f8b685;}.cls-11{fill:#6ac5d7;}.cls-12{fill:#f18412;}</style></defs><path class="cls-1" d="M27.81,48.11H11a2.42,2.42,0,0,1-2.34-2.36c0-.55,0-1.1,0-1.66a1.48,1.48,0,0,1-.15-1V16.5a1,1,0,0,1,.16-.67,1.31,1.31,0,0,1,.59-.05h4a2.31,2.31,0,0,0,2.49-2.47c0-1.33,0-2.67,0-4a1.53,1.53,0,0,1,.05-.6c.18-.19.43-.16.66-.17H31.4a.86.86,0,0,1,.62.16h1.51A2.42,2.42,0,0,1,36,11.21c0,2.64,0,5.28,0,7.92-.14.18-.36.15-.55.15h-1.8c-.65,0-.65,0-.45.59.38,1.16.77,2.31,1.15,3.47.07.21.2.43,0,.67a3,3,0,0,1-1.65.13,1.23,1.23,0,0,1-.11-.68c0-.84,0-1.68,0-2.52a2.31,2.31,0,0,0-2.43-2.45q-7.87,0-15.74,0a2.31,2.31,0,0,0-2.44,2.44c0,1.44,0,2.89,0,4.33V41.21a2.39,2.39,0,0,0,2.71,2.72h9.15a3.55,3.55,0,0,1,.8,0c.22.06.2.23.2.4A2.27,2.27,0,0,0,26,46.47c.51.35,1,.76,1.47,1.13C27.62,47.73,27.83,47.84,27.81,48.11Z"/><path class="cls-2" d="M32.83,24.16A8.53,8.53,0,0,1,34.42,24a1,1,0,0,1,.67-.16h5.13a1,1,0,0,1,.67.16,6.43,6.43,0,0,1,6.42,6.63c0,2.72,0,5.45,0,8.18a2.77,2.77,0,0,0,.77,2,3,3,0,0,1,.81,1.63c-.22.23-.49.16-.75.13A3.71,3.71,0,0,1,47.2,42a5.43,5.43,0,0,0-6.76.32,1.32,1.32,0,0,1-.93.27H33.42a1.86,1.86,0,0,0-2,1.48,2,2,0,0,0-.05.6c0,.17.12.4-.1.49s-.35-.08-.48-.2c-.42-.37-.88-.68-1.28-1.06a3.79,3.79,0,0,0-3-1.35l-.14-.08a2,2,0,0,1,.54-1.45A4.06,4.06,0,0,0,27.63,40a3.28,3.28,0,0,0,.22-1.61c0-.77,0-1.55,0-2.32q0-.81,0-1.62c0-.79,0-1.59,0-2.38,0-.52,0-1,0-1.57a6.11,6.11,0,0,1,.42-2.32,6.86,6.86,0,0,1,1-1.83,6.61,6.61,0,0,1,1.93-1.64,6.74,6.74,0,0,1,1.13-.51C32.51,24.14,32.66,24.06,32.83,24.16Z"/><path class="cls-3" d="M8.78,15.82c-.18.19-.09.42-.09.62q0,13.5,0,27c0,.22,0,.44,0,.65H7.12a2.41,2.41,0,0,1-2.46-2.45V7.09A2.4,2.4,0,0,1,7.09,4.66H29.57A2.41,2.41,0,0,1,32,7.12V8.68H16.39c-.19,0-.4-.08-.57.09s-.19.31-.32.44L9.22,15.5C9.09,15.63,9,15.79,8.78,15.82Z"/><path class="cls-4" d="M26.42,42.49a3.64,3.64,0,0,1,3.15,1.3c.52.49,1.1.92,1.74,1.45a2.64,2.64,0,0,1,0-1.4,2,2,0,0,1,2-1.36h6.38a.85.85,0,0,0,.64-.19,5.52,5.52,0,0,1,6.77-.49c.35.22.7.46,1,.69a.9.9,0,0,1,.16.67v7.49a.88.88,0,0,1-.16.67H32.68a3.06,3.06,0,0,1-1.81-.89c-1-.78-2-1.62-3.06-2.33a24.12,24.12,0,0,0-2.09-1.69,2.23,2.23,0,0,1-.88-2.33A1.75,1.75,0,0,1,26.42,42.49Z"/><path class="cls-5" d="M40.89,24H34.42l-1.58-4.84H42.5c-.53,1.55-1,3-1.55,4.51A.92.92,0,0,0,40.89,24Z"/><path class="cls-3" d="M48.12,51.32V42.49l.77,0c.69,0,1.38,0,2.06,0,.32,0,.39.1.39.4q0,4.05,0,8.09c0,.27-.06.39-.36.38C50,51.32,49.07,51.32,48.12,51.32Z"/><path class="cls-6" d="M46.21,21.88c.16.09.34.18.5.29a10,10,0,0,1,3.61,4.38c.12.27.06.4-.2.49s-.73.42-1.06.38-.35-.59-.52-.9a8.63,8.63,0,0,0-2.82-3.06c-.32-.2-.36-.39-.17-.68s.26-.47.39-.7S46,21.85,46.21,21.88Z"/><path class="cls-7" d="M26.42,42.49a2.39,2.39,0,0,0-1.58,1.6H14.49A2.47,2.47,0,0,1,11.9,41.5V20.94a2.48,2.48,0,0,1,2.62-2.6H30.21a2.48,2.48,0,0,1,2.62,2.6v3.22a11.29,11.29,0,0,0-1.61.65.64.64,0,0,1-.17-.36.36.36,0,0,0-.39-.31H19.29c-.79,0-.79,0-.79.78,0,1.48-.16,1.31,1.32,1.32h8.75a1.13,1.13,0,0,1,.82.15,10.84,10.84,0,0,0-1,1.71,1.59,1.59,0,0,1-.65.07H19.27c-.76,0-.77,0-.77.75v.9a.39.39,0,0,0,.43.44h8.23c.28,0,.58-.05.82.16V32c-.24.22-.54.16-.82.16H19.33c-.82,0-.83,0-.83.8,0,1.44-.18,1.29,1.28,1.29h7.38a1.12,1.12,0,0,1,.82.15V36c-.24.22-.54.16-.82.16H19.33c-.82,0-.83,0-.83.8,0,1.45-.18,1.29,1.28,1.3h7.38c.28,0,.58-.06.82.16a2.59,2.59,0,0,1-.26,1.62,1.32,1.32,0,0,1-.83.15H19.26c-.73,0-.76,0-.76.76v.7c0,.58.05.63.64.63h6.43a1.1,1.1,0,0,1,.81.16Z"/><path class="cls-8" d="M8.78,15.82c1.59-1.6,3.17-3.2,4.76-4.79.75-.76,1.52-1.5,2.28-2.25.17.15.1.34.1.52,0,1.37,0,2.74,0,4.11a2.45,2.45,0,0,1-2.52,2.52H9.3C9.12,15.92,8.93,16,8.78,15.82Z"/><path class="cls-7" d="M25.61,11.9h6.73c.36,0,.5.08.5.47,0,1.14,0,1.14-1.13,1.14H19c-.47,0-.64-.1-.62-.6,0-1,0-1,1.05-1Z"/><path class="cls-7" d="M21.91,16.73c-1.06,0-2.11,0-3.16,0-.3,0-.41-.09-.42-.4,0-1.22,0-1.22,1.15-1.22,1.87,0,3.75,0,5.62,0,.37,0,.49.1.49.48,0,1.14,0,1.14-1.12,1.14Z"/><path class="cls-1" d="M29.39,26.38c-3.52,0-7,0-10.55,0-.41,0-.53-.13-.51-.52a11.69,11.69,0,0,0,0-1.45c0-.35.11-.47.46-.46,1.67,0,3.35,0,5,0h6.58c.82,0,.82,0,.83.84A9.16,9.16,0,0,0,29.39,26.38Z"/><path class="cls-1" d="M28,30.41c-3,0-6.06,0-9.09,0-.44,0-.59-.11-.56-.56a14.2,14.2,0,0,0,0-1.46c0-.29.08-.41.39-.41h9.34c.12,0,.24,0,.33.09A8.78,8.78,0,0,0,28,30.41Z"/><path class="cls-1" d="M28,34.43c-3,0-6.06,0-9.09,0-.45,0-.59-.13-.56-.57a8.82,8.82,0,0,0,0-1.36c0-.39.1-.51.51-.51,2.54,0,5.09,0,7.63,0H28Z"/><path class="cls-1" d="M28,38.46c-3,0-6.06,0-9.09,0-.45,0-.59-.13-.56-.57a8.69,8.69,0,0,0,0-1.35c0-.4.1-.52.51-.51H28Z"/><path class="cls-1" d="M26.38,42.48H18.85c-.39,0-.55-.09-.52-.5s0-1,0-1.51c0-.29.07-.42.39-.42,3,0,6,0,9,0a1.19,1.19,0,0,1-.39.63A3.69,3.69,0,0,0,26.38,42.48Z"/><path class="cls-9" d="M32,32.42c0,.53,0,1.07,0,1.6,0,.29-.07.41-.39.42-1.23,0-1.23.05-1.23-1.18,0-.81,0-1.61,0-2.41,0-.31.06-.44.41-.45,1.2,0,1.2,0,1.2,1.16Z"/><path class="cls-9" d="M32.35,27c.1,0,.15.06.19.13l.21.34c.48.75.4,1.1-.34,1.59a.2.2,0,0,1-.26,0l-.66-.37c-.58-.37-.58-.41-.1-.94A2.62,2.62,0,0,1,32.35,27Z"/><path class="cls-10" d="M36,47.31H33c-.61,0-.95-.28-1-.79s.33-.82,1-.82h6.12c.61,0,1,.28,1,.79s-.33.82-1,.82Z"/><path class="cls-1" d="M24.76,22.36H18.83c-.37,0-.52-.08-.5-.47a10.87,10.87,0,0,0,0-1.51c0-.42.19-.45.52-.44H30.26c.67,0,1,.28.95.94,0,.46.2,1.05-.08,1.36s-.89.1-1.35.11C28.11,22.37,26.43,22.36,24.76,22.36Z"/><path class="cls-1" d="M15.14,26.39c-.43,0-.87,0-1.3,0-.24,0-.33-.09-.33-.33,0-.58,0-1.17,0-1.75,0-.27.12-.34.36-.34.84,0,1.67,0,2.51,0,.26,0,.36.09.35.35q0,.86,0,1.71c0,.29-.12.37-.39.36S15.54,26.39,15.14,26.39Z"/><path class="cls-11" d="M15.14,30.41c-.44,0-.87,0-1.31,0-.23,0-.32-.09-.32-.32,0-.59,0-1.17,0-1.76,0-.27.12-.34.37-.34.83,0,1.67,0,2.5,0,.26,0,.36.1.35.36,0,.57,0,1.13,0,1.7,0,.3-.12.37-.39.36S15.54,30.41,15.14,30.41Z"/><path class="cls-1" d="M15.11,34.43c-.39,0-.77,0-1.16,0s-.46-.07-.44-.41c0-.55,0-1.11,0-1.66,0-.25.09-.36.35-.35h2.51c.29,0,.37.11.36.38,0,.56,0,1.11,0,1.66,0,.28-.09.39-.37.38S15.52,34.43,15.11,34.43Z"/><path class="cls-1" d="M15.14,36h1.2c.26,0,.4.06.39.36q0,.85,0,1.71c0,.25-.08.35-.35.35h-2.5c-.24,0-.38-.06-.37-.33,0-.59,0-1.17,0-1.76,0-.28.13-.33.37-.33Z"/><path class="cls-1" d="M15.08,22.36h-1.2c-.25,0-.38-.07-.37-.34,0-.44,0-.87,0-1.31a.73.73,0,0,1,.76-.76c.7,0,1.4,0,2.11,0,.26,0,.35.1.34.35q0,.86,0,1.71c0,.26-.08.37-.35.36C16,22.35,15.51,22.36,15.08,22.36Z"/><path class="cls-1" d="M15.32,42.48c-.31,0-.63,0-1,0a.79.79,0,0,1-.86-.83c-.07-1.58-.07-1.58,1.53-1.58a11,11,0,0,0,1.15,0c.46-.05.58.14.55.57s0,1,0,1.5c0,.27-.1.36-.35.35Z"/><path class="cls-12" d="M38.6,32.55a1.17,1.17,0,0,0-1.06-.69H35.89c-.14,0-.19,0-.18-.17q0-.53,0-1.05c0-.11,0-.16.15-.16h5.21c.1,0,.14,0,.14.13s0,.44,0,.66,0,.14-.14.14H39.49A3,3,0,0,1,40,32.49c0,.09.09.06.15.06.28,0,.56,0,.85,0,.13,0,.19,0,.18.18a5.42,5.42,0,0,0,0,.57c0,.12,0,.17-.16.16h-.86c-.12,0-.16,0-.19.15a2.5,2.5,0,0,1-1.57,1.77s-.14,0-.15.08.07.09.11.13l2.31,1.82c.08.06.1.11,0,.2-.23.28-.46.57-.68.86-.09.12-.16.07-.24,0l-2.75-2.21-1-.8a.25.25,0,0,1-.11-.21c0-.32,0-.63,0-.94,0-.12,0-.15.14-.15.49,0,1,0,1.46,0a1.14,1.14,0,0,0,1-.51s.09-.1.05-.16-.1,0-.15,0H35.89c-.15,0-.19,0-.18-.18a4.68,4.68,0,0,0,0-.53c0-.15,0-.2.19-.2.81,0,1.63,0,2.45,0Z"/></svg>