<svg width="25" height="20" viewBox="0 0 25 20" fill="none" xmlns="http://www.w3.org/2000/svg">
<path fill-rule="evenodd" clip-rule="evenodd" d="M12.5 0C13.5688 0 14.665 0.0275001 15.7275 0.0725001L16.9825 0.1325L18.1838 0.20375L19.3088 0.28L20.3362 0.36C21.4515 0.444864 22.501 0.920543 23.2999 1.70325C24.0989 2.48596 24.596 3.52549 24.7038 4.63875L24.7537 5.17L24.8475 6.3075C24.935 7.48625 25 8.77125 25 10C25 11.2288 24.935 12.5138 24.8475 13.6925L24.7537 14.83L24.7038 15.3612C24.596 16.4747 24.0987 17.5144 23.2995 18.2971C22.5003 19.0799 21.4505 19.5554 20.335 19.64L19.31 19.7188L18.185 19.7962L16.9825 19.8675L15.7275 19.9275C14.6523 19.9741 13.5762 19.9982 12.5 20C11.4238 19.9982 10.3477 19.9741 9.2725 19.9275L8.0175 19.8675L6.81625 19.7962L5.69125 19.7188L4.66375 19.64C3.54852 19.5551 2.499 19.0795 1.70006 18.2967C0.901111 17.514 0.403988 16.4745 0.29625 15.3612L0.24625 14.83L0.1525 13.6925C0.0572909 12.4639 0.00642455 11.2323 0 10C0 8.77125 0.065 7.48625 0.1525 6.3075L0.24625 5.17L0.29625 4.63875C0.403947 3.52569 0.90089 2.48632 1.69958 1.70363C2.49827 0.920948 3.54749 0.445145 4.6625 0.36L5.68875 0.28L6.81375 0.20375L8.01625 0.1325L9.27125 0.0725001C10.3469 0.025909 11.4234 0.00173698 12.5 0ZM10 6.96875V13.0312C10 13.6088 10.625 13.9688 11.125 13.6812L16.375 10.65C16.4892 10.5842 16.5841 10.4895 16.6501 10.3754C16.7161 10.2613 16.7508 10.1318 16.7508 10C16.7508 9.86818 16.7161 9.7387 16.6501 9.62458C16.5841 9.51047 16.4892 9.41576 16.375 9.35L11.125 6.32C11.011 6.25415 10.8816 6.2195 10.7499 6.21952C10.6182 6.21954 10.4888 6.25424 10.3748 6.32012C10.2608 6.386 10.1661 6.48075 10.1003 6.59483C10.0345 6.70891 9.99992 6.83831 10 6.97V6.96875Z" fill="white"/>
</svg>
