<svg id="Layer_1" data-name="Layer 1" xmlns="http://www.w3.org/2000/svg" xmlns:xlink="http://www.w3.org/1999/xlink" viewBox="0 0 500 500"><defs><style>.cls-1{fill:url(#linear-gradient);}.cls-2{fill:url(#linear-gradient-2);}.cls-3{fill:#fff;}</style><linearGradient id="linear-gradient" x1="117.84" y1="62.18" x2="398.04" y2="429.56" gradientUnits="userSpaceOnUse"><stop offset="0" stop-color="#1e2b4f"/><stop offset="1" stop-color="#304580"/></linearGradient><linearGradient id="linear-gradient-2" x1="215.42" y1="391.72" x2="435.97" y2="279.91" gradientUnits="userSpaceOnUse"><stop offset="0" stop-color="#d71350"/><stop offset="1" stop-color="#e83471"/></linearGradient></defs><path class="cls-1" d="M447.17,405.21c-38.27,47.89-95.72,65-155.31,53.46a33.47,33.47,0,0,1-6-2.22c1.12.16,5.49.79,6.37.95,59.83,7,97.78-7.64,129.85-47.82A132.76,132.76,0,0,0,449.63,307c0-.15,0-.23-.08-.31a132.87,132.87,0,0,0-181-103.2c30.23,7.88,131.83,37.08,171.22,82.35,0,0-83.46-50.13-208.38-59.51a126.85,126.85,0,0,0-16.95,17.58,50.19,50.19,0,0,0-3.1,4.22c30.63,1.75,163.58,11.37,228.19,46.14-6-1.35-118.39-26.73-243.94-18.46a127,127,0,0,0-7.48,24.27c8.19-.55,17.74-1.19,28.32-1.75,68.59-4.06,179.5-7.88,229.86,4.85,0,0-134.94,4.7-232.72,24.51-20.24,4.15-40.26,9.45-60.12,15.07l-29,8.24V65.39H25.72V24.33H263.85V65.39h-89v229c.08-.79.16-1.51.24-2.3a152.31,152.31,0,0,1,32.46-78.14C260.27,147.82,356.7,137,423,189.75A153.28,153.28,0,0,1,447.17,405.21Z"/><path class="cls-2" d="M449.53,306.67a1297.42,1297.42,0,0,0-263,37.32c-2.7.72-5.41,1.35-8.11,2.07-1.12.32-2.31.55-3.42.87-4.3,1.2-8.52,2.31-12.58,3.34-19.81,5.42-37.71,10.83-53.7,16.08-9.87,3.18-19,6.28-27.37,9.31-38.43,13.6-60.23,24.1-62.06,25A564.43,564.43,0,0,1,84,384.57c40.5-7.24,70-6.29,91.42-.56l1.75.48a78.1,78.1,0,0,1,15.28,5.81,74.21,74.21,0,0,1,7.08,4,63.19,63.19,0,0,1,8,5.89,62.21,62.21,0,0,1,14.64,18.22c.79,1.67,1.59,3.26,2.31,4.93a76,76,0,0,1,5.4,20.93,96.49,96.49,0,0,1-1.59,31.43c5.57-7.72,11.54-15.28,17.75-22.52,2.62-3,5.25-6,7.87-9a7.54,7.54,0,0,0,.8-.8C330.27,361.1,440.46,311.05,449.61,307a3.65,3.65,0,0,1,.64-.32Z"/><path class="cls-3" d="M237.91,371.29c-.22.06-.39.17-.61.22q-22.7,8.87-44.83,18.78a78.35,78.35,0,0,0-15.3-5.8c18.5-7.73,34-13.73,53-20.19Z"/><path class="cls-3" d="M266.92,352.85l7.27,5.08c-8.61,3-17.23,6.24-25.79,9.44l-7.34-6.28C249.78,358.16,258.08,355.56,266.92,352.85Z"/><path class="cls-3" d="M304.39,341.14l6.41,4.42c-4,1.21-7.9,2.54-11.82,3.81q-7.12,2.31-14.19,4.8l-6.8-4.56c5.47-1.71,14.2-5,19.72-6.59C301,342.08,301.08,342,304.39,341.14Z"/><path class="cls-3" d="M425.65,312.59c-35,8.12-69.85,18.45-104.14,29.43l-5-3.81C351.88,328.66,389.7,319.39,425.65,312.59Z"/></svg>