<svg xmlns="http://www.w3.org/2000/svg" fill="none" viewBox="0 0 215.83 57">
<path d="M54.0306 48.1042C49.1976 54.1534 41.9458 56.3133 34.4158 54.8564C34.1562 54.7868 33.9038 54.6927 33.6619 54.5754C33.8029 54.5955 34.3554 54.6761 34.4657 54.6962C42.0225 55.5805 46.8162 53.7313 50.8665 48.6538C54.0056 44.7214 55.2381 39.2209 54.069 34.2978C53.5082 31.9497 52.4476 29.7502 50.9594 27.8494C49.4712 25.9485 47.5905 24.3911 45.4456 23.2833C43.3006 22.1755 40.942 21.5434 38.5305 21.4302C36.1191 21.317 33.7116 21.7254 31.4723 22.6274C35.2905 23.622 48.1234 27.3097 53.0974 33.028C53.0974 33.028 42.5558 26.6978 26.7794 25.5114C25.9944 26.1818 25.2759 26.9263 24.6338 27.7346C24.4938 27.9053 24.3624 28.0866 24.2425 28.2669C28.1106 28.4885 44.9027 29.7056 53.0628 34.0955C52.309 33.9247 38.1093 30.7194 22.2523 31.7639C21.8361 32.7529 21.5196 33.7811 21.3076 34.833C22.3435 34.763 23.5491 34.6824 24.8851 34.6124C33.5536 34.0955 47.5566 33.613 53.9203 35.2214C53.9203 35.2214 36.8778 35.8142 24.5274 38.3165C21.9713 38.8402 19.4441 39.5087 16.935 40.2194C15.7144 40.5647 14.4938 40.9115 13.2731 41.26V5.18496H0.804691V0H30.8786V5.18496H19.634V34.106C19.6436 34.0053 19.6541 33.9142 19.6637 33.8183C20.0711 30.2076 21.4927 26.7862 23.7639 23.95C30.4259 15.5961 42.6057 14.2294 50.9758 20.8952C59.346 27.561 60.7031 39.7427 54.0306 48.1042Z" fill="url(#paint0_linear_18_74)"/>
<path d="M54.2349 35.677C43.0644 36.1021 31.9672 37.6753 21.1187 40.3719C20.7763 40.463 20.4348 40.5426 20.0934 40.6337C19.9524 40.673 19.8057 40.7037 19.6608 40.744C19.1189 40.8946 18.5857 41.0318 18.0735 41.166C15.5712 41.8489 13.3105 42.5328 11.2907 43.1955C10.0438 43.5974 8.89288 43.9897 7.83786 44.3714C2.98476 46.0901 0.231146 47.4166 0 47.5269C3.05381 46.5927 5.7633 45.928 8.16492 45.4974C13.2799 44.5824 17.0079 44.7032 19.7117 45.4264C19.7817 45.4465 19.8622 45.4667 19.9323 45.4868C20.5994 45.6632 21.2462 45.9092 21.862 46.2205C22.1689 46.3717 22.4673 46.5394 22.7559 46.7231C23.113 46.9427 23.4522 47.1899 23.7706 47.4626C24.5273 48.1058 25.1548 48.887 25.6198 49.7645C25.7205 49.9755 25.8212 50.1769 25.9075 50.3879C26.2601 51.232 26.4904 52.122 26.5914 53.0312C26.7417 54.3562 26.6737 55.697 26.39 57C27.093 56.0255 27.8468 55.0703 28.6304 54.1562C28.9623 53.7726 29.2941 53.3889 29.626 53.0206C29.6608 52.9899 29.6928 52.9562 29.7219 52.9199C39.2584 42.5299 53.0811 36.2314 54.2368 35.7144C54.2625 35.6988 54.2894 35.6853 54.3174 35.6742L54.2349 35.677Z" fill="url(#paint1_linear_18_74)"/>
<path d="M27.6071 43.818C27.5793 43.8257 27.5582 43.8391 27.5303 43.8458C25.6166 44.5945 23.7275 45.3845 21.863 46.2158C21.2469 45.9068 20.6006 45.6625 19.9342 45.4868C22.2696 44.5105 24.2329 43.7537 26.6249 42.9375L27.6071 43.818Z" fill="white"/>
<path d="M31.2651 41.4921L32.1839 42.1328C31.0963 42.5165 30.0077 42.9202 28.923 43.325L27.9955 42.5318C29.1013 42.1625 30.1497 41.8336 31.2651 41.4921Z" fill="white"/>
<path d="M35.9993 40.0122L36.8078 40.5704C36.3052 40.7239 35.8103 40.8908 35.3154 41.05C34.716 41.2418 34.1156 41.4471 33.5229 41.6561L32.6645 41.0807C33.3541 40.8639 34.458 40.4429 35.1581 40.2472C35.5734 40.1312 35.5801 40.1244 35.9993 40.0122Z" fill="white"/>
<path d="M51.3134 36.4069C46.8919 37.4322 42.4896 38.7366 38.1611 40.1244L37.5329 39.6449C41.9937 38.4354 46.7739 37.2644 51.3134 36.4069Z" fill="white"/>
<path d="M75.695 43.2905V23.1117H79.8786V25.569C81.2837 23.6507 83.2777 22.6839 85.8251 22.6839H87.494V26.6719H86.4255C84.1582 26.6719 82.4855 27.2637 81.4545 28.4319C80.4234 29.6001 79.8786 31.5212 79.8786 34.1041V43.2905H75.695Z" fill="url(#paint2_linear_18_74)"/>
<path d="M79.495 42.9068H76.0787V23.4954H79.495V26.9155C80.8339 24.3502 82.944 23.0676 85.8251 23.0676H87.1104V26.2883H86.4256C84.0316 26.2883 82.2787 26.9181 81.1667 28.1777C80.0548 29.4374 79.4976 31.4128 79.495 34.1041V42.9068Z" fill="url(#paint3_linear_18_74)"/>
<path d="M97.4994 43.6751C94.8935 43.6751 92.7576 42.8301 91.152 41.1641C89.5465 39.4981 88.7351 37.2682 88.7351 34.5261V23.1127H92.9226V33.7147C92.9226 35.584 93.3273 37.0428 94.1234 38.0518C94.9194 39.0608 95.9984 39.5307 97.4563 39.5307C98.235 39.5396 99.0031 39.3498 99.6881 38.9792C100.354 38.6148 100.935 38.047 101.408 37.2931C101.881 36.5393 102.119 35.2425 102.119 33.4145V23.1117H106.307V34.5251C106.307 37.2672 105.494 39.5 103.89 41.1631C102.286 42.8262 100.134 43.6751 97.4994 43.6751Z" fill="url(#paint4_linear_18_74)"/>
<path d="M102.502 23.4954H105.923V34.5251C105.923 37.1761 105.153 39.2999 103.614 40.8965C102.074 42.4931 100.036 43.2924 97.4994 43.2943C94.9917 43.2943 92.968 42.495 91.4283 40.8965C89.8886 39.298 89.1187 37.1742 89.1187 34.5251V23.4954H92.5389V33.7147C92.5389 35.6809 92.9667 37.2059 93.8222 38.2896C94.6777 39.3734 95.8891 39.915 97.4563 39.9144C98.3 39.9247 99.1322 39.7183 99.8732 39.3149C100.6 38.9166 101.22 38.3111 101.732 37.4984C102.244 36.6857 102.5 35.3244 102.499 33.4145L102.502 23.4954Z" fill="url(#paint5_linear_18_74)"/>
<path d="M119.22 43.2905C117.301 43.2905 115.711 43.067 114.493 42.6267C113.259 42.1808 111.894 41.1881 110.434 39.6669C108.945 38.1189 108.19 35.9264 108.19 33.1584C108.202 31.6559 108.551 30.1753 109.21 28.8251C109.882 27.397 110.965 26.0782 112.416 24.9072C113.89 23.7159 116.078 23.1117 118.92 23.1117H122.127V26.8714H119.729C117.501 26.8714 115.717 27.4574 114.426 28.6122C113.135 29.767 112.502 31.3025 112.502 33.2869C112.502 35.2416 113.116 36.7273 114.38 37.8293C115.644 38.9313 117.412 39.4876 119.643 39.4876H122.123V43.2905H119.22Z" fill="url(#paint6_linear_18_74)"/>
<path d="M121.743 39.8712V42.9068H119.219C117.338 42.9068 115.806 42.6933 114.623 42.2661C113.441 41.839 112.136 40.8856 110.711 39.4061C109.285 37.9239 108.572 35.843 108.573 33.1632C108.573 31.7667 108.901 30.377 109.556 28.9939C110.212 27.6109 111.245 26.3497 112.656 25.2102C114.067 24.0702 116.155 23.5002 118.92 23.5002H121.743V26.4926H119.729C117.392 26.4926 115.537 27.1055 114.166 28.3312C112.794 29.5569 112.111 31.2104 112.114 33.2917C112.114 35.3429 112.786 36.9533 114.129 38.1228C115.471 39.2922 117.31 39.8767 119.644 39.876L121.743 39.8712Z" fill="url(#paint7_linear_18_74)"/>
<path d="M137.007 43.2905V38.7174C137.007 37.0687 136.653 35.9043 135.952 35.2569C135.251 34.6095 133.987 34.2691 132.212 34.2691H129.347V43.2905H125.158V13.9618H129.347V30.5084H130.759C131.765 30.5084 132.495 30.3703 132.93 30.0979C133.234 29.9061 133.76 29.3968 134.535 28.0521L137.44 23.1223L142.084 23.1098L138.527 29.0371C137.85 30.1545 137.397 30.8374 137.138 31.127C136.96 31.3168 136.758 31.4837 136.539 31.6238C139.626 32.6395 141.19 34.9807 141.19 38.5889V43.2885L137.007 43.2905Z" fill="url(#paint8_linear_18_74)"/>
<path d="M140.812 42.9068H137.391V38.7174C137.391 36.9494 136.999 35.7026 136.216 34.9769C135.433 34.2511 134.1 33.888 132.217 33.8873H128.969V42.9068H125.548V14.3454H128.969V30.892H130.765C131.849 30.892 132.64 30.7357 133.139 30.423C133.638 30.1103 134.216 29.3837 134.872 28.2429L137.664 23.5049L141.41 23.4953L138.204 28.8395C137.548 29.9233 137.101 30.6004 136.861 30.8709C136.622 31.1414 136.187 31.4336 135.557 31.7475C139.063 32.5455 140.816 34.826 140.816 38.5889L140.812 42.9068Z" fill="url(#paint9_linear_18_74)"/>
<path d="M71.8902 43.2905C68.7971 43.2905 66.711 42.7543 65.515 41.6494C64.319 40.5445 63.7243 38.5735 63.7243 35.7662V14.0587H67.9128V23.1971H74.1115V26.9568H67.9128V35.6387C67.9128 37.2039 68.1746 38.2465 68.6916 38.7385C69.0503 39.08 69.9259 39.4876 72.0609 39.4876H74.1115V43.2905H71.8902Z" fill="url(#paint10_linear_18_74)"/>
<path d="M67.5291 26.5731V35.6387C67.5291 37.3209 67.8284 38.4469 68.4269 39.0166C69.0253 39.5864 70.2367 39.8712 72.0609 39.8712H73.7279V42.9068H71.8902C68.9253 42.9068 66.8869 42.3937 65.7749 41.3674C64.663 40.3412 64.1073 38.4744 64.108 35.7672V14.4423H67.5291V23.5807H73.7279V26.5731H67.5291Z" fill="url(#paint11_linear_18_74)"/>
<path d="M154.901 43.6751C151.81 43.6751 149.256 42.6114 147.308 40.51C145.36 38.4086 144.384 35.6809 144.384 32.37V13.9551H148.571V31.69C148.571 34.1837 149.179 36.1355 150.378 37.4974C151.577 38.8594 153.117 39.5307 155.072 39.5307C156.774 39.5307 158.181 38.9255 159.37 37.6825C160.559 36.4395 161.145 34.9433 161.145 33.2006C161.145 31.4051 160.542 29.8773 159.352 28.6592C158.161 27.4411 156.705 26.8292 154.94 26.8292C153.973 26.8292 153.127 26.9903 152.426 27.3088C151.725 27.6272 150.847 28.2564 149.854 29.1666L149.211 29.7555V24.9791L149.355 24.864C151.155 23.4177 153.135 22.6839 155.239 22.6839C158.011 22.6839 160.433 23.6996 162.432 25.7042C164.432 27.7087 165.452 30.1583 165.452 32.9877C165.452 35.9859 164.43 38.5428 162.413 40.5896C160.396 42.6363 157.874 43.6751 154.901 43.6751Z" fill="url(#paint12_linear_18_74)"/>
<path d="M144.767 14.3454H148.188V31.69C148.188 34.2892 148.822 36.3097 150.09 37.7516C151.359 39.1934 153.02 39.9144 155.073 39.9144C156.868 39.9144 158.393 39.2587 159.648 37.9472C160.902 36.6358 161.53 35.0539 161.53 33.2016C161.53 31.2916 160.895 29.688 159.627 28.3907C158.358 27.0933 156.798 26.4449 154.945 26.4456C153.918 26.4456 153.027 26.6166 152.272 26.9587C151.518 27.3008 150.627 27.9421 149.599 28.8827V25.1623C151.338 23.7658 153.219 23.0676 155.244 23.0676C157.923 23.0676 160.233 24.0369 162.171 25.9756C164.11 27.9143 165.079 30.2516 165.078 32.9877C165.078 35.8944 164.102 38.3386 162.149 40.3201C160.197 42.3016 157.781 43.2927 154.902 43.2933C151.909 43.2933 149.471 42.2802 147.59 40.2539C145.709 38.2276 144.768 35.6013 144.768 32.3748L144.767 14.3454Z" fill="url(#paint13_linear_18_74)"/>
<path d="M170.764 20.7149C170.381 20.7201 170.001 20.6484 169.646 20.5041C169.291 20.3598 168.968 20.1459 168.697 19.8749C168.426 19.6039 168.213 19.2813 168.068 18.9263C167.924 18.5713 167.853 18.191 167.858 17.8078C167.853 17.4312 167.925 17.0574 168.069 16.7095C168.213 16.3615 168.427 16.0466 168.697 15.7841C168.967 15.5116 169.289 15.297 169.644 15.1533C170 15.0097 170.381 14.9401 170.764 14.9487C171.523 14.9495 172.251 15.2513 172.788 15.788C173.325 16.3248 173.627 17.0525 173.628 17.8117C173.636 18.1953 173.566 18.5765 173.421 18.932C173.277 19.2875 173.062 19.6099 172.789 19.8795C172.526 20.1489 172.21 20.3619 171.862 20.5055C171.514 20.6491 171.141 20.7204 170.764 20.7149Z" fill="url(#paint14_linear_18_74)"/>
<path d="M170.764 15.3324C171.422 15.3329 172.052 15.5942 172.517 16.059C172.982 16.5238 173.244 17.1542 173.244 17.8117C173.252 18.1449 173.192 18.4762 173.067 18.7851C172.942 19.0941 172.755 19.3742 172.517 19.6081C172.29 19.8425 172.017 20.0279 171.716 20.1529C171.414 20.2779 171.09 20.3399 170.764 20.3351C170.431 20.3404 170.101 20.2787 169.792 20.1538C169.484 20.0289 169.204 19.8432 168.968 19.6078C168.733 19.3724 168.547 19.0921 168.422 18.7835C168.298 18.475 168.236 18.1445 168.242 17.8117C168.236 17.4854 168.298 17.1615 168.423 16.8601C168.548 16.5587 168.734 16.2861 168.969 16.0594C169.202 15.8219 169.482 15.6349 169.791 15.5099C170.1 15.3849 170.431 15.3244 170.764 15.3324Z" fill="url(#paint15_linear_18_74)"/>
<path d="M172.901 23.0686H168.713V43.2905H172.901V23.0686Z" fill="url(#paint16_linear_18_74)"/>
<path d="M172.517 23.4522H169.096V42.9068H172.517V23.4522Z" fill="url(#paint17_linear_18_74)"/>
<path d="M182.223 13.9618H178.034V43.2914H182.223V13.9618Z" fill="url(#paint18_linear_18_74)"/>
<path d="M181.839 14.3454H178.418V42.9078H181.839V14.3454Z" fill="url(#paint19_linear_18_74)"/>
<path d="M194.067 43.2905C190.973 43.2905 188.887 42.7543 187.691 41.6494C186.495 40.5445 185.901 38.5726 185.901 35.7662V17.2966H190.089V23.1971H196.288V26.9568H190.089V35.6387C190.089 37.2039 190.351 38.2465 190.867 38.7385C191.227 39.08 192.101 39.4876 194.237 39.4876H196.288V43.2905H194.067Z" fill="url(#paint20_linear_18_74)"/>
<path d="M189.706 26.5731V35.6387C189.706 37.3209 190.005 38.4469 190.603 39.0167C191.202 39.5864 192.413 39.8712 194.237 39.8712H195.904V42.9068H194.067C191.102 42.9068 189.064 42.3937 187.951 41.3674C186.839 40.3412 186.283 38.4744 186.284 35.7672V17.6803H189.706V23.5807H195.904V26.5731H189.706Z" fill="url(#paint21_linear_18_74)"/>
<path d="M205.228 52.4413V43.4967C200.801 42.8032 198.556 39.8588 198.556 34.7409V23.1117H202.741V34.5251C202.741 36.1604 203.14 37.4418 203.928 38.3338C204.717 39.2257 205.795 39.6573 207.232 39.6573C208.67 39.6573 209.726 39.22 210.488 38.3194C211.249 37.4188 211.639 36.0779 211.639 34.3544V23.1117H215.827V34.5251C215.827 39.524 213.67 42.5328 209.413 43.4746V52.4404L205.228 52.4413Z" fill="url(#paint22_linear_18_74)"/>
<path d="M212.024 23.4954H215.445V34.5251C215.445 39.4575 213.307 42.3368 209.032 43.1629V52.0567H205.61V43.1639C201.164 42.5941 198.941 39.7865 198.94 34.7409V23.4954H202.357V34.5251C202.357 36.265 202.785 37.6192 203.64 38.5879C204.496 39.5566 205.693 40.041 207.232 40.041C208.771 40.041 209.954 39.5493 210.781 38.5659C211.608 37.5825 212.022 36.1786 212.02 34.3544L212.024 23.4954Z" fill="url(#paint23_linear_18_74)"/>
<defs>
<linearGradient id="paint0_linear_18_74" x1="12.4368" y1="4.78021" x2="47.827" y2="51.1801" gradientUnits="userSpaceOnUse">
<stop stop-color="#1E2B4F"/>
<stop offset="1" stop-color="#304580"/>
</linearGradient>
<linearGradient id="paint1_linear_18_74" x1="24.7269" y1="46.4181" x2="52.5334" y2="32.3211" gradientUnits="userSpaceOnUse">
<stop stop-color="#D71350"/>
<stop offset="1" stop-color="#E83471"/>
</linearGradient>
<linearGradient id="paint2_linear_18_74" x1="66.5134" y1="32.9877" x2="142.04" y2="32.9877" gradientUnits="userSpaceOnUse">
<stop stop-color="#1E2B4F"/>
<stop offset="1" stop-color="#304580"/>
</linearGradient>
<linearGradient id="paint3_linear_18_74" x1="67.4937" y1="32.9877" x2="138.109" y2="32.9877" gradientUnits="userSpaceOnUse">
<stop stop-color="#1E2B4F"/>
<stop offset="1" stop-color="#304580"/>
</linearGradient>
<linearGradient id="paint4_linear_18_74" x1="66.1231" y1="33.3934" x2="139.962" y2="33.3934" gradientUnits="userSpaceOnUse">
<stop stop-color="#1E2B4F"/>
<stop offset="1" stop-color="#304580"/>
</linearGradient>
<linearGradient id="paint5_linear_18_74" x1="67.4936" y1="33.3934" x2="138.109" y2="33.3934" gradientUnits="userSpaceOnUse">
<stop stop-color="#1E2B4F"/>
<stop offset="1" stop-color="#304580"/>
</linearGradient>
<linearGradient id="paint6_linear_18_74" x1="64.7171" y1="33.2016" x2="139.446" y2="33.2016" gradientUnits="userSpaceOnUse">
<stop stop-color="#1E2B4F"/>
<stop offset="1" stop-color="#304580"/>
</linearGradient>
<linearGradient id="paint7_linear_18_74" x1="67.4937" y1="33.2016" x2="138.109" y2="33.2016" gradientUnits="userSpaceOnUse">
<stop stop-color="#1E2B4F"/>
<stop offset="1" stop-color="#304580"/>
</linearGradient>
<linearGradient id="paint8_linear_18_74" x1="63.2227" y1="28.6256" x2="138.567" y2="28.6256" gradientUnits="userSpaceOnUse">
<stop stop-color="#1E2B4F"/>
<stop offset="1" stop-color="#304580"/>
</linearGradient>
<linearGradient id="paint9_linear_18_74" x1="67.4936" y1="28.6256" x2="138.109" y2="28.6256" gradientUnits="userSpaceOnUse">
<stop stop-color="#1E2B4F"/>
<stop offset="1" stop-color="#304580"/>
</linearGradient>
<linearGradient id="paint10_linear_18_74" x1="67.3805" y1="28.6746" x2="143.628" y2="28.6746" gradientUnits="userSpaceOnUse">
<stop stop-color="#1E2B4F"/>
<stop offset="1" stop-color="#304580"/>
</linearGradient>
<linearGradient id="paint11_linear_18_74" x1="67.4937" y1="28.6745" x2="138.109" y2="28.6745" gradientUnits="userSpaceOnUse">
<stop stop-color="#1E2B4F"/>
<stop offset="1" stop-color="#304580"/>
</linearGradient>
<linearGradient id="paint12_linear_18_74" x1="147.684" y1="28.8184" x2="213.468" y2="28.8184" gradientUnits="userSpaceOnUse">
<stop stop-color="#D71350"/>
<stop offset="1" stop-color="#E83471"/>
</linearGradient>
<linearGradient id="paint13_linear_18_74" x1="147.948" y1="28.8184" x2="211.336" y2="28.8184" gradientUnits="userSpaceOnUse">
<stop stop-color="#D71350"/>
<stop offset="1" stop-color="#E83471"/>
</linearGradient>
<linearGradient id="paint14_linear_18_74" x1="144.452" y1="17.8299" x2="217.563" y2="17.8299" gradientUnits="userSpaceOnUse">
<stop stop-color="#D71350"/>
<stop offset="1" stop-color="#E83471"/>
</linearGradient>
<linearGradient id="paint15_linear_18_74" x1="147.948" y1="17.8299" x2="211.336" y2="17.8299" gradientUnits="userSpaceOnUse">
<stop stop-color="#D71350"/>
<stop offset="1" stop-color="#E83471"/>
</linearGradient>
<linearGradient id="paint16_linear_18_74" x1="142.821" y1="33.1795" x2="220.426" y2="33.1795" gradientUnits="userSpaceOnUse">
<stop stop-color="#D71350"/>
<stop offset="1" stop-color="#E83471"/>
</linearGradient>
<linearGradient id="paint17_linear_18_74" x1="147.948" y1="33.1795" x2="211.336" y2="33.1795" gradientUnits="userSpaceOnUse">
<stop stop-color="#D71350"/>
<stop offset="1" stop-color="#E83471"/>
</linearGradient>
<linearGradient id="paint18_linear_18_74" x1="140.73" y1="28.6256" x2="218.337" y2="28.6256" gradientUnits="userSpaceOnUse">
<stop stop-color="#D71350"/>
<stop offset="1" stop-color="#E83471"/>
</linearGradient>
<linearGradient id="paint19_linear_18_74" x1="147.948" y1="28.6256" x2="211.336" y2="28.6256" gradientUnits="userSpaceOnUse">
<stop stop-color="#D71350"/>
<stop offset="1" stop-color="#E83471"/>
</linearGradient>
<linearGradient id="paint20_linear_18_74" x1="144.506" y1="30.2935" x2="212.952" y2="30.2935" gradientUnits="userSpaceOnUse">
<stop stop-color="#D71350"/>
<stop offset="1" stop-color="#E83471"/>
</linearGradient>
<linearGradient id="paint21_linear_18_74" x1="147.948" y1="30.2935" x2="211.336" y2="30.2935" gradientUnits="userSpaceOnUse">
<stop stop-color="#D71350"/>
<stop offset="1" stop-color="#E83471"/>
</linearGradient>
<linearGradient id="paint22_linear_18_74" x1="145.193" y1="37.7765" x2="211.529" y2="37.7765" gradientUnits="userSpaceOnUse">
<stop stop-color="#D71350"/>
<stop offset="1" stop-color="#E83471"/>
</linearGradient>
<linearGradient id="paint23_linear_18_74" x1="147.948" y1="37.7765" x2="211.336" y2="37.7765" gradientUnits="userSpaceOnUse">
<stop stop-color="#D71350"/>
<stop offset="1" stop-color="#E83471"/>
</linearGradient>
</defs>
</svg>